<?xml version="1.0" encoding="UTF-8" standalone="no"?>
<svg width="56px" height="55px" viewBox="0 0 56 55" version="1.1" xmlns="http://www.w3.org/2000/svg" xmlns:xlink="http://www.w3.org/1999/xlink" xmlns:sketch="http://www.bohemiancoding.com/sketch/ns">
    <!-- Generator: Sketch 3.4.3 (16618) - http://www.bohemiancoding.com/sketch -->
    <title>logo-bootstrap</title>
    <desc>Created with Sketch.</desc>
    <defs></defs>
    <g id="Page-1" stroke="none" stroke-width="1" fill="none" fill-rule="evenodd" sketch:type="MSPage">
        <g id="logo-bootstrap" sketch:type="MSLayerGroup">
            <g id="Page-1" sketch:type="MSShapeGroup">
                <g id="bootstrap-color">
                    <g id="Group">
                        <path d="M47.0688406,54.9202899 L8.36956521,54.9202899 C3.74637681,54.9202899 0,51.1739131 0,46.5507246 L0,8.36956521 C0,3.74637681 3.74637681,0 8.36956521,0 L47.0688406,0 C51.6521739,0 55.4384058,3.74637681 55.4384058,8.36956521 L55.4384058,46.5507246 C55.4384058,51.134058 51.6521739,54.9202899 47.0688406,54.9202899 L47.0688406,54.9202899 L47.0688406,54.9202899 Z" id="Shape" fill="#6F5499"></path>
                        <path d="M30.2101449,10.3623188 C31.7644927,10.3623188 33.1594202,10.481884 34.4347826,10.7608695 C35.7101449,11.0398551 36.8260869,11.4782608 37.7028986,12.115942 C38.6594202,12.7536232 39.3768116,13.5507246 39.8550725,14.5869565 C40.3731884,15.6231884 40.6123188,16.8985507 40.6123188,18.4130435 C40.6123188,20.0471014 40.2536232,21.4420289 39.4963768,22.518116 C38.7391305,23.5942029 37.6630435,24.5108695 36.1884058,25.2282608 C38.1811594,25.8260869 39.6956522,26.8224638 40.6920289,28.2572464 C41.6884058,29.6920289 42.1666667,31.4456522 42.1666667,33.4782608 C42.1666667,35.1123188 41.8478261,36.5471014 41.2101449,37.7427536 C40.5724638,38.9384058 39.6956522,39.9347826 38.6195652,40.6920289 C37.5434782,41.4492754 36.3079711,42.0072464 34.9130435,42.365942 C33.518116,42.7246377 32.1231884,42.9239131 30.6485507,42.9239131 L14.9057971,42.9239131 L14.9057971,10.3623188 L30.2101449,10.3623188 L30.2101449,10.3623188 L30.2101449,10.3623188 Z M29.2934782,23.5543478 C30.5688406,23.5543478 31.6050725,23.2355073 32.4420289,22.6376812 C33.2789855,22.0398551 33.6775362,21.0434782 33.6775362,19.6884058 C33.6775362,18.9311594 33.5579711,18.2934782 33.2789855,17.8152174 C33,17.3369565 32.6413044,16.9384058 32.2028986,16.6594203 C31.7644927,16.3804348 31.2065218,16.1811594 30.6485507,16.1014493 C30.0507246,15.981884 29.4528986,15.9420289 28.8152174,15.9420289 L22.0398551,15.9420289 L22.0398551,23.5543478 L29.2934782,23.5543478 L29.2934782,23.5543478 L29.2934782,23.5543478 Z M29.731884,37.384058 C30.4492754,37.384058 31.0869565,37.3043478 31.7246377,37.1847826 C32.3623188,37.0652174 32.9202899,36.8260869 33.3985507,36.5072464 C33.8768116,36.1884058 34.2753623,35.75 34.5543478,35.1920289 C34.8333333,34.634058 34.9927536,33.9565218 34.9927536,33.0797101 C34.9927536,31.4057971 34.5144927,30.2101449 33.5978261,29.4927536 C32.6413044,28.7753623 31.4057971,28.4166667 29.8514493,28.4166667 L22.0398551,28.4166667 L22.0398551,37.3442029 L29.731884,37.3442029 L29.731884,37.384058 L29.731884,37.384058 Z" id="Shape" fill="#FFFFFF"></path>
                    </g>
                </g>
            </g>
        </g>
    </g>
</svg>