<?xml version="1.0" encoding="UTF-8" standalone="no"?>
<svg width="90px" height="41px" viewBox="0 0 90 41" version="1.1" xmlns="http://www.w3.org/2000/svg" xmlns:xlink="http://www.w3.org/1999/xlink" xmlns:sketch="http://www.bohemiancoding.com/sketch/ns">
    <!-- Generator: Sketch 3.4.3 (16618) - http://www.bohemiancoding.com/sketch -->
    <title>logo-less</title>
    <desc>Created with Sketch.</desc>
    <defs>
        <linearGradient x1="50%" y1="-4.71911798e-06%" x2="50%" y2="100%" id="linearGradient-1">
            <stop stop-color="#2A4F84" offset="14.97%"></stop>
            <stop stop-color="#294E82" offset="38.839999%"></stop>
            <stop stop-color="#172E4E" offset="100%"></stop>
        </linearGradient>
    </defs>
    <g id="Page-1" stroke="none" stroke-width="1" fill="none" fill-rule="evenodd" sketch:type="MSPage">
        <g id="logo-less" sketch:type="MSLayerGroup" transform="translate(1.000000, 1.000000)">
            <g id="Page-1" sketch:type="MSShapeGroup">
                <g id="LESS_Logo">
                    <g id="layer1" transform="translate(0.049142, 0.014431)">
                        <path d="M83.8775115,31.6355391 C83.8775115,35.7877442 80.4749115,39.1850196 76.316198,39.1850196 L12.7625726,39.1850196 C8.60385941,39.1850196 5.20125906,35.7877442 5.20125906,31.6355391 L5.20125906,7.59268439 C5.20125906,3.44047934 8.60385941,0.043203879 12.7625726,0.043203879 L76.316198,0.043203879 C80.4749115,0.043203879 83.8775115,3.44047934 83.8775115,7.59268439 L83.8775115,31.6355391 L83.8775115,31.6355391 L83.8775115,31.6355391 Z" id="path19" fill="url(#linearGradient-1)"></path>
                        <path d="M70.5827279,19.1005126 C73.9043889,20.2607989 75.5645252,22.2487925 75.5645252,25.0615378 C75.5645252,26.9129347 74.8760315,28.3824336 73.5020964,29.4692958 C72.1295495,30.5568968 70.1715554,31.2318449 67.6229351,31.2318449 C65.0743152,31.2318449 62.716897,30.4945555 60.5455933,29.2842115 C60.5690889,28.6423274 60.7390153,27.938102 61.0509327,27.1736597 C61.3628501,26.4092172 61.7320263,25.8018749 62.1550388,25.3582822 C64.1505884,26.3937012 65.8871318,26.9122881 67.3611541,26.9122881 C68.0577882,26.9122881 68.5967987,26.7955484 68.9719875,26.5604988 C69.3478236,26.3262803 69.534678,26.0118956 69.534678,25.616883 C69.534678,24.8744216 68.9587593,24.3191688 67.8106223,23.9490926 L65.7481934,23.1713508 C62.628095,22.0360009 61.0679531,20.1860817 61.0679531,17.6164212 C61.0679531,15.7400877 61.7233311,14.2529485 63.0340871,13.1527869 C64.344843,12.0541953 66.1115423,11.1082706 68.3328898,11.1082706 C69.4318157,11.1082706 70.6417443,11.2625075 71.9656354,11.5709813 C73.288139,11.880194 74.374577,12.6417732 75.223377,13.0602447 C75.273421,13.7520018 75.1343902,14.5113646 74.8115574,15.3382406 C74.4864125,16.1658555 74.0878203,16.7518633 73.611897,17.0978342 C71.5134846,16.1592981 69.7673213,15.69003 68.368318,15.69003 C67.8674184,15.69003 67.4901023,15.8009513 67.2252682,16.0241791 C66.9633948,16.2467606 66.8346315,16.5301131 66.8346315,16.8760841 C66.8346315,17.4687416 67.3083357,17.9372708 68.2578702,18.2831494 L70.5827279,19.1005126 L70.5827279,19.1005126 L70.5827279,19.1005126 Z" id="path21" fill="#F6F6F6"></path>
                        <path d="M53.9919986,19.1005126 C57.3136595,20.2607989 58.9730562,22.2487925 58.9730562,25.0615378 C58.9730562,26.9129347 58.2845624,28.3824336 56.9128475,29.4692958 C55.5389126,30.5568968 53.5801788,31.2318449 51.0322987,31.2318449 C48.4858986,31.2318449 46.1255203,30.4945555 43.9549566,29.2842115 C43.9784521,28.6423274 44.1483786,27.938102 44.4609435,27.1736597 C44.7728609,26.4092172 45.140557,25.8018749 45.5650496,25.3582822 C47.5628193,26.3937012 49.2986228,26.9122881 50.771905,26.9122881 C51.4691865,26.9122881 52.0082892,26.7955484 52.381998,26.5604988 C52.7564469,26.3262803 52.9446889,26.0118956 52.9446889,25.616883 C52.9446889,24.8744216 52.3687702,24.3191688 51.2206331,23.9490926 L49.1595919,23.1713508 C46.0387532,22.0360009 44.4779639,20.1860817 44.4779639,17.6164212 C44.4779639,15.7400877 45.1333419,14.2529485 46.4454854,13.1527869 C47.7555013,12.0541953 49.5214605,11.1082706 51.7428079,11.1082706 C52.8409939,11.1082706 54.0538825,11.2625075 55.3749062,11.5709813 C56.69889,11.880194 57.7838481,12.6417732 58.6332957,13.0602447 C58.6833393,13.7520018 58.5443085,14.5113646 58.2214759,15.3382406 C57.8970708,16.1658555 57.4977388,16.7518633 57.0225551,17.0978342 C54.9233106,16.1592981 53.1771468,15.69003 51.7774963,15.69003 C51.277337,15.69003 50.8985405,15.8009513 50.6351868,16.0241791 C50.3740531,16.2467606 50.2439026,16.5301131 50.2439026,16.8760841 C50.2439026,17.4687416 50.7182538,17.9372708 51.6678812,18.2831494 L53.9919986,19.1005126 L53.9919986,19.1005126 L53.9919986,19.1005126 Z" id="path23" fill="#F6F6F6"></path>
                        <path d="M41.8931754,19.3618841 C41.8931754,18.2265343 41.7122411,17.1770769 41.3503726,16.2135119 C40.9892441,15.2500393 40.4706768,14.4238098 39.7968909,13.7320527 C39.122365,13.0402955 38.3052007,12.497511 37.3445655,12.1024059 C36.3824503,11.7080397 35.3026723,11.1131656 34.1044915,11.1131656 C32.6811604,11.1131656 31.4389486,11.7565273 30.3783185,12.2507319 C29.3176885,12.74429 28.4438203,13.42284 27.7575466,14.2872131 C27.0697929,15.1522327 26.5578858,16.1701963 26.2209929,17.3429508 C25.8840999,18.5157977 25.7156534,19.7935627 25.7156534,21.1756915 C25.7156534,22.606308 25.8524641,23.9296052 26.1275656,25.139118 C26.4019271,26.3471531 26.8703582,27.3958716 27.5317488,28.2860125 C28.1936944,29.1745832 29.0549823,29.8656938 30.1163523,30.3584207 C31.1777224,30.8519788 32.495046,31.2309212 34.0676756,31.2309212 C36.9634565,31.2309212 39.4098618,30.3937012 41.407539,28.9873748 C41.2096768,27.5567582 40.6992497,26.4191919 39.8791253,25.5797553 C38.8589188,25.9622997 37.956375,26.2362318 37.1738065,26.404507 C36.390498,26.5705657 35.6997841,26.6542415 35.1033301,26.6542415 C33.9094969,26.6542415 33.0504291,26.3509397 32.5289943,25.7385176 C32.0081145,25.1282198 31.7223753,24.4063542 31.6717765,23.3098869 L41.409019,23.3098869 C41.730649,22.2715123 41.8931754,20.8681413 41.8931754,19.3618841 L41.8931754,19.3618841 L41.8931754,19.3618841 Z M31.6346831,19.6182683 C31.7088699,18.3580513 31.9392004,17.0097252 32.3224369,16.4545648 C32.7064135,15.8986654 33.2940799,15.621039 34.0876561,15.621039 C34.9049129,15.621039 35.5182949,15.9163057 35.926507,16.5089633 C36.3355517,17.1016209 36.539889,18.29571 36.539889,19.2092172 L36.540629,19.6182683 L31.6346831,19.6182683 L31.6346831,19.6182683 L31.6346831,19.6182683 L31.6346831,19.6182683 Z" id="path25" fill="#F6F6F6"></path>
                        <path d="M85.8378177,22.0820873 C84.7794079,23.0051997 84.1651934,24.3336689 84.1651934,26.0705426 L84.1651934,32.5389795 C84.1651934,34.689245 83.5031554,36.3247102 82.0078577,37.4490695 C80.5139475,38.5719511 78.7722236,39.1278504 76.7840741,39.1814177 L75.6057816,39.1725513 L75.6057816,35.9493696 C76.6443961,35.6468068 77.0709233,35.2951097 77.4843161,34.8955715 C78.2331207,34.2199769 78.8068197,33.1205542 78.8068197,31.5937936 L78.8068197,26.3716278 C78.8347554,24.5966105 78.9715659,23.2057077 79.6188039,22.2010436 C80.2683541,21.1963796 81.5326741,20.3180605 83.4119482,19.5594366 C81.3362918,18.6106488 79.9423764,17.371674 79.2318669,15.8434357 C78.8141272,14.935747 78.8059869,13.7108104 78.8059869,12.1700115 L78.8059869,7.38109351 C78.8059869,5.79919557 78.2874197,4.6910912 77.6497095,4.05871993 C77.2349298,3.6459746 76.7523462,3.3162586 75.6042085,3.06735534 L75.6042085,0.0416338028 C77.0083921,0.0563186331 77.717421,0.0402484414 78.5353252,0.0416338028 C79.794558,0.0313821289 80.84936,0.718798433 81.7672597,1.43475317 C82.7669305,2.21979127 83.4773475,3.28107042 83.8936997,4.61683584 C84.1305049,5.38866682 84.1643607,6.12604849 84.1643607,6.82805725 L84.1643607,12.3668252 C84.1643607,14.3231401 84.7432393,15.7773078 85.7325502,16.7268344 C86.2901534,17.2776541 87.077162,17.7813715 88.4283416,18.2360471 L88.4283416,20.738102 C87.2309934,21.0686492 86.4792282,21.5165828 85.8378177,22.0820873 L85.8378177,22.0820873 L85.8378177,22.0820873 Z" id="path27" stroke="#404040" stroke-width="0.725478858" fill="#F6F6F6"></path>
                        <path d="M11.3551519,0.0432962365 L11.3551519,0.0476370353 C10.9528599,0.0454204572 10.5886788,0.0439427384 10.2974819,0.0446815978 C9.03750964,0.0336910644 7.98279974,0.721107364 7.06564059,1.43780097 C6.06458194,2.22283907 5.20773421,3.24735996 4.93929287,4.61988363 C4.78629426,5.42477857 4.81867003,6.12826507 4.81867003,6.83110505 L4.81867003,12.369873 C4.81867003,14.3255414 4.08975281,15.7788778 3.10118197,16.7299746 C2.54431883,17.2807019 1.35566576,17.7836805 0.00374633845,18.2382637 L0.00374633845,20.7402263 C1.20192713,21.0700346 2.35533686,21.5164904 2.99517447,22.0834727 C4.05432448,23.0073239 4.817745,24.3366243 4.817745,26.0733133 L4.817745,32.5417502 C4.817745,34.6906304 5.33122462,36.3275733 6.82504243,37.4503625 C8.31895266,38.5725052 10.0599363,39.1306211 12.0480857,39.1849273 L13.3786371,39.176061 L13.3786371,35.9506627 C12.3407626,35.6473609 11.7641965,35.2955715 11.3485842,34.897511 C10.600519,34.2210852 10.176859,33.1224936 10.176859,31.5964719 L10.176859,26.3735673 C10.1481833,24.5971647 9.8613341,23.2076472 9.21335626,22.2022443 C8.56537849,21.199058 7.30096616,20.3192611 5.41947171,19.5613761 C7.49596072,18.6118494 8.88904361,17.3736135 9.59955292,15.846114 C10.0181253,14.9376864 10.1769515,13.71275 10.1769515,12.1720434 L10.1769515,7.38312538 C10.1769515,5.80122743 10.5446477,4.69312307 11.1817103,4.06010529 C11.527391,3.71644332 12.142253,3.43364489 12.9963256,3.20459848 L14.346765,3.21401893 L14.346765,0.0430191642 L11.3553369,0.0430191642 L11.3553369,0.0432962365 L11.3551519,0.0432962365 L11.3551519,0.0432962365 L11.3551519,0.0432962365 Z" id="path29" stroke="#404040" stroke-width="0.725478858" fill="#F6F6F6"></path>
                        <path d="M23.8056683,26.285643 L22.794342,26.285643 C21.6947685,26.285643 21.2806362,25.7084091 21.2806362,24.5488617 L21.2806362,3.23784715 C21.2806362,1.9563879 20.9099799,1.05673424 20.4354437,0.538332025 C19.9610001,0.0213151697 19.1372681,0.0264871854 17.9640629,0.0264871854 L15.680184,0.0264871854 L15.4110026,0.0213151697 L15.4110026,0.0432962365 L15.4087826,3.21512722 L15.4087826,25.5800323 C15.4087826,27.3586516 15.808947,28.66006 16.5208438,29.4884138 C17.2335732,30.3152898 18.4376741,30.7280351 20.1352742,30.7280351 C21.3092194,30.7280351 22.644951,30.6046456 24.1424688,30.3571277 C24.2174881,30.1073932 24.2550439,29.5728285 24.2550439,28.7525098 C24.2550439,27.9299746 24.1050979,27.109656 23.8056683,26.285643 L23.8056683,26.285643 L23.8056683,26.285643 Z" id="path31" fill="#F6F6F6"></path>
                    </g>
                </g>
            </g>
        </g>
    </g>
</svg>