<?xml version="1.0" encoding="UTF-8" standalone="no"?>
<svg width="132px" height="30px" viewBox="0 0 132 30" version="1.1" xmlns="http://www.w3.org/2000/svg" xmlns:xlink="http://www.w3.org/1999/xlink" xmlns:sketch="http://www.bohemiancoding.com/sketch/ns">
    <!-- Generator: Sketch 3.4.3 (16618) - http://www.bohemiancoding.com/sketch -->
    <title>logo-jquery</title>
    <desc>Created with Sketch.</desc>
    <defs></defs>
    <g id="Page-1" stroke="none" stroke-width="1" fill="none" fill-rule="evenodd" sketch:type="MSPage">
        <g id="logo-jquery" sketch:type="MSLayerGroup">
            <g id="Page-1" sketch:type="MSShapeGroup">
                <g id="JQuery_logo">
                    <path d="M56.445378,11.6397479 L56.4456305,11.6384874 L55.600588,14.6334454 L56.445378,11.6397479 L56.445378,11.6397479 L56.445378,11.6397479 L56.445378,11.6397479 Z" id="Shape" fill="#131B28"></path>
                    <path id="Shape" fill="#131B28" d="M60.7915965,18.1581344 L59.860336,18.1361345 L60.7915965,18.1581344 L60.7915965,18.1581344 L60.7915965,18.1581344 Z"></path>
                    <path id="Shape" fill="#131B28" d="M60.552101,22.6142017 L60.553109,22.6142017 L54.9738655,22.6942017 L60.552101,22.6142017 L60.552101,22.6142017 L60.552101,22.6142017 L60.552101,22.6142017 Z"></path>
                    <path id="Shape" fill="#131B28" d="M61.7218485,18.1636806 L60.790336,18.1416807 L61.7218485,18.1636806 L61.7218485,18.1636806 L61.7218485,18.1636806 Z"></path>
                    <path d="M61.0411765,22.2340336 L62.013025,18.527647 L61.0411765,22.2347899 L61.0411765,22.2340336 L61.0411765,22.2340336 L61.0411765,22.2340336 L61.0411765,22.2340336 Z" id="Shape" fill="#131B28"></path>
                    <path d="M81.582101,5.1655462 L79.7717645,13.6764706 L81.582101,5.1655462 L81.582101,5.1655462 L81.582101,5.1655462 Z" id="Shape" fill="#131B28"></path>
                    <path d="M76.9285715,5.1655462 L75.5541175,11.5235294 L76.9285715,5.165042 L76.9285715,5.1655462 L76.9285715,5.1655462 L76.9285715,5.1655462 Z" id="Shape" fill="#131B28"></path>
                    <path d="M81.272269,4.78260504 L77.4010085,4.78260504 C77.1862185,4.78260504 76.9731935,4.95504202 76.927311,5.1647899 L75.552857,11.5232773 L74.1784035,17.8820168 C74.133025,18.0917647 73.92,18.2636975 73.70521,18.2636975 L71.3563865,18.2636975 L70.965126,18.2636975 C68.2542855,18.2636975 68.567647,16.3885715 69.123025,13.8199159 C69.1283195,13.7939496 69.1341175,13.7687395 69.139412,13.7422689 L69.200168,13.4185714 C69.2042015,13.397647 69.2082355,13.3767227 69.2117645,13.357563 L69.335546,12.6983194 L69.467899,11.9916806 C69.5082355,11.7786555 69.5692435,11.4673109 69.60958,11.2716807 L70.2342855,8.2189916 L70.859496,5.1663025 C70.902857,4.95579832 70.7616805,4.78285715 70.546891,4.78285715 L66.5732775,4.78285715 C66.3584875,4.78285715 66.1459665,4.95579832 66.1018485,5.1657983 L65.247479,9.21932775 L64.393109,13.272353 C64.392353,13.2741177 64.392101,13.2766387 64.3918485,13.2784033 L64.312437,13.655042 C63.3282355,18.1479832 63.5891595,22.4324369 68.937731,22.5665546 C69.02521,22.5690756 69.092773,22.569832 69.092773,22.569832 L77.4882355,22.569832 C77.7032775,22.569832 77.915546,22.3971429 77.9606725,22.1868907 L79.7712605,13.6767227 L81.5815965,5.1657983 C81.6264705,4.95504202 81.487059,4.78285715 81.272269,4.78260504 L81.272269,4.78260504 L81.272269,4.78260504 L81.272269,4.78260504 Z" id="Shape" fill="#131B28"></path>
                    <path id="Shape" fill="#131B28" d="M96.7162185,18.3078152 C96.9312605,18.3078152 97.0716805,18.4802521 97.0288235,18.6907563 L96.652689,20.5280673"></path>
                    <path id="Shape" fill="#131B28" d="M96.277311,22.3661344 L96.652941,20.5278151 L96.2768065,22.3666386 C96.2768065,22.3661344 96.277311,22.3661344 96.277311,22.3661344 L96.277311,22.3661344 L96.277311,22.3661344 L96.277311,22.3661344 Z"></path>
                    <path id="Shape" fill="#131B28" d="M95.8058825,22.7537816 C95.8063865,22.7537816 95.807143,22.7523529 95.807647,22.7523529 C94.6681515,22.7780673 91.244622,22.852353 88.6714285,22.852353 C91.803025,22.852353 95.8056305,22.7544958 95.8058825,22.7537816 L95.8058825,22.7537816 L95.8058825,22.7537816 L95.8058825,22.7537816 Z"></path>
                    <path d="M86.362185,15.9413446 C86.3589075,15.7401681 86.588067,15.3935294 86.803109,15.3935294 L86.31958,15.3854622 C86.1017645,17.5767227 86.362185,15.9413446 86.362185,15.9413446 L86.362185,15.9413446 L86.362185,15.9413446 L86.362185,15.9413446 Z" id="Shape" fill="#131B28"></path>
                    <path id="Shape" fill="#131B28" d="M89.049748,22.7866387 C89.0166402,22.7866387 88.9828564,22.7866387 88.949748,22.7886387 C88.9828564,22.7866387 89.0166402,22.7866387 89.049748,22.7866387 L89.049748,22.7866387 L89.049748,22.7866387 Z"></path>
                    <path id="Shape" fill="#131B28" d="M96.7162185,18.3078151 C96.9312605,18.3078151 97.0716805,18.4802521 97.0288235,18.6907563 L96.652689,20.5280672 L96.5914285,20.827563"></path>
                    <path id="Shape" fill="#131B28" d="M90.9035125,22.7823529 L90.8415125,22.7823529 L90.9035125,22.7823529 L90.9035125,22.7823529 L90.9035125,22.7823529 Z"></path>
                    <path id="Shape" fill="#131B28" d="M89.9517645,22.7853781 L89.8517645,22.7853781 L89.9517645,22.7853781 L89.9517645,22.7853781 L89.9517645,22.7853781 Z"></path>
                    <path id="Shape" fill="#131B28" d="M89.6257985,22.7861344 C89.5917268,22.7861344 89.5587626,22.7861344 89.5257985,22.7881345 C89.5587626,22.7861344 89.5917268,22.7861344 89.6257985,22.7861344 L89.6257985,22.7861344 L89.6257985,22.7861344 Z"></path>
                    <path id="Shape" fill="#131B28" d="M89.341933,22.7866387 L89.241933,22.7866387 L89.341933,22.7866387 L89.341933,22.7866387 L89.341933,22.7866387 Z"></path>
                    <path id="Shape" fill="#131B28" d="M89.8512605,22.7853781 C89.772605,22.7853781 89.6942015,22.7873782 89.6168065,22.7873782 C89.6942015,22.7873782 89.772857,22.7853781 89.8512605,22.7853781 L89.8512605,22.7853781 L89.8512605,22.7853781 Z"></path>
                    <path id="Shape" fill="#131B28" d="M90.842017,22.7823529 C90.5289075,22.787353 90.2163025,22.7923529 89.907983,22.7953529 C90.2160505,22.793353 90.5291595,22.787353 90.842017,22.7823529 L90.842017,22.7823529 L90.842017,22.7823529 Z"></path>
                    <path id="Shape" fill="#131B28" d="M95.8084035,22.7521009 L95.8084035,22.7521009 C94.9736975,22.7747899 92.912017,22.8260505 90.8556305,22.8521008 C92.9110085,22.8277311 94.9731935,22.7747899 95.8084035,22.7521009 L95.8084035,22.7521009 L95.8084035,22.7521009 Z"></path>
                    <path id="Shape" fill="#131B28" d="M96.277311,22.3671429 L96.591933,20.8278151 L96.2768065,22.3681513 C96.2768065,22.367647 96.277311,22.367647 96.277311,22.3671429 L96.277311,22.3671429 L96.277311,22.3671429 L96.277311,22.3671429 Z"></path>
                    <path id="Shape" fill="#131B28" d="M89.5260505,22.7866387 L89.3215965,22.7866387 L89.5260505,22.7866387 L89.5260505,22.7866387 L89.5260505,22.7866387 Z"></path>
                    <path id="Shape" fill="#131B28" d="M88.9487395,22.7871428 L88.672437,22.7871428 L88.9487395,22.7871428 L88.9487395,22.7871428 L88.9487395,22.7871428 Z"></path>
                    <path id="Shape" fill="#131B28" d="M89.2411765,22.7866387 L89.0233615,22.7866387 L89.2411765,22.7866387 L89.2411765,22.7866387 L89.2411765,22.7866387 Z"></path>
                    <path d="M32.6117647,15.987479 L33.2130252,13.3217647 L32.5255462,16.3689075 L31.8657983,19.4727731 L32.4441177,16.7518488 C32.4887395,16.5413446 32.5643697,16.197479 32.6117647,15.987479 L32.6117647,15.987479 L32.6117647,15.987479 L32.6117647,15.987479 Z" id="Shape" fill="#131B28"></path>
                    <path d="M39.8092437,4.73773109 L35.5578152,4.73773109 C35.3427731,4.73773109 35.1282353,4.90941176 35.0800841,5.11865545 L34.6769748,6.8979832 L34.2738656,8.67806725 C34.2264706,8.8873109 34.3633614,9.0589916 34.5784034,9.0589916 L38.8628572,9.0589916 C39.0776471,9.0589916 39.2911765,8.8873109 39.3373109,8.6773109 L39.7268067,6.8979832 L40.1163025,5.11991595 L40.1163025,5.11941175 C40.1626891,4.90966386 40.0245378,4.73773109 39.8092437,4.73773109 L39.8092437,4.73773109 L39.8092437,4.73773109 L39.8092437,4.73773109 Z" id="Shape" fill="#131B28"></path>
                    <path d="M38.8840336,10.6568067 L38.8840336,10.6563025 L37.6371428,16.4248739 L38.8840336,10.6568067 L38.8840336,10.6568067 L38.8840336,10.6568067 Z" id="Shape" fill="#131B28"></path>
                    <path id="Shape" fill="#131B28" d="M26.5336135,29.7718858 C26.5336135,29.7718858 28.6767227,29.870084 30.0390757,29.870084 C29.0042017,29.870084 27.294958,29.8025164 26.5318488,29.7700841 C26.5326051,29.7700841 26.5331092,29.7718858 26.5336135,29.7718858 L26.5336135,29.7718858 L26.5336135,29.7718858 L26.5336135,29.7718858 Z"></path>
                    <path d="M33.8142857,10.6560504 L33.2122689,13.3217647 L33.8142857,10.6560504 L33.8142857,10.6560504 L33.8142857,10.6560504 Z" id="Shape" fill="#131B28"></path>
                    <path d="M38.5764706,10.2746218 L34.2915126,10.2746218 C34.0767227,10.2746218 33.8619328,10.4463025 33.8145378,10.6563025 L33.212521,13.3220168 L32.6112605,15.9877311 C32.5638656,16.197479 32.4882353,16.5415966 32.4436135,16.7518488 L31.8652941,19.4730252 L31.287479,22.1939496 C31.2426051,22.4036975 31.1503362,22.7430252 31.0812605,22.9464706 C31.0812605,22.9464706 30.2808404,25.3283194 28.9351261,25.3013445 C28.8778992,25.300084 28.8221849,25.2995799 28.7669748,25.2980672 C28.115042,25.2857143 27.602521,25.2766386 27.602521,25.2766386 L27.6015126,25.2766386 C27.3869748,25.2733613 27.1711765,25.4407563 27.1212605,25.6494958 L26.6768067,27.517563 L26.2331093,29.3846218 C26.1831933,29.5933613 26.3180673,29.7657983 26.5315967,29.7693277 C27.294958,29.7784034 29.0039496,29.797563 30.0388236,29.797563 C33.4003362,29.797563 35.172353,27.935042 36.3083194,22.5758823 L37.637647,16.4248739 L38.8845378,10.6560504 C38.929916,10.4465546 38.7910084,10.2746218 38.5764706,10.2746218 L38.5764706,10.2746218 L38.5764706,10.2746218 L38.5764706,10.2746218 Z" id="Shape" fill="#131B28"></path>
                    <path d="M99.4462185,22.5693277 C99.2314285,22.5693277 99.092017,22.3968907 99.137143,22.1861344 L102.360504,7.08781515" id="Shape" fill="#131B28"></path>
                    <path d="M103.926051,22.1858824 L105.229664,15.7416807 L103.926051,22.1858824 L103.926051,22.1858824 L103.926051,22.1858824 Z" id="Shape" fill="#131B28"></path>
                    <path d="M99.1840335,22.3779832 C99.157815,22.2728572 99.1731935,22.0152101 99.2190755,21.8044538 L100.748572,14.6377311 L99.136891,22.1866386 C99.0917645,22.3971429 99.2311765,22.5695799 99.4459665,22.5695799 L99.837479,22.5695799 C99.622185,22.5693277 99.21,22.4833613 99.1840335,22.3779832 L99.1840335,22.3779832 L99.1840335,22.3779832 L99.1840335,22.3779832 Z" id="Shape" fill="#131B28"></path>
                    <path d="M103.671429,22.4833613 C103.554202,22.5307563 103.282437,22.5695799 103.067395,22.5695799 L103.458907,22.5695799 C103.673698,22.5695799 103.884706,22.3971429 103.927059,22.1861345 L104.004706,21.8031933 C103.962101,22.0134454 103.788656,22.4357143 103.671429,22.4833613 L103.671429,22.4833613 L103.671429,22.4833613 L103.671429,22.4833613 Z" id="Shape" fill="#131B28"></path>
                    <path d="M104.578992,18.9637815 L105.154286,16.1195799 C105.154033,16.1213445 105.153781,16.1238656 105.153278,16.125126 L104.578992,18.9637815 L104.578992,18.9637815 L104.578992,18.9637815 L104.578992,18.9637815 Z" id="Shape" fill="#131B28"></path>
                    <path id="Shape" fill="#131B28" d="M117.297479,8.0994958 L117.474958,8.83310925 C117.523865,9.04310925 117.388235,9.2135294 117.173698,9.2140336"></path>
                    <path d="M104.004201,21.8031933 L104.577983,18.9640336 L104.004201,21.8031933 L104.004201,21.8031933 L104.004201,21.8031933 Z" id="Shape" fill="#131B28"></path>
                    <path id="Shape" fill="#131B28" d="M117.121009,7.3479832 L117.296723,8.0994958 L117.121009,7.3479832 L117.121009,7.3479832 L117.121009,7.3479832 Z"></path>
                    <path d="M105.153781,16.1198319 C105.196386,15.9093277 105.267227,15.5682353 105.311848,15.3597479 L105.92647,12.4805042 L105.23042,15.7419327 L105.153781,16.1198319 L105.153781,16.1198319 L105.153781,16.1198319 L105.153781,16.1198319 Z" id="Shape" fill="#131B28"></path>
                    <path d="M102.413445,6.8407563 C102.370588,7.0439496 102.315883,7.30058825 102.27958,7.4705042 L100.749832,14.6377311 L102.361513,7.08831935 L102.413445,6.8407563 L102.413445,6.8407563 L102.413445,6.8407563 L102.413445,6.8407563 Z" id="Shape" fill="#131B28"></path>
                    <path d="M117.47395,8.83310925 L117.296219,8.0994958 L117.120504,7.3479832 L117.031513,6.96756305 C116.683614,5.6152941 115.661849,4.83504201 113.443613,4.83504201 L109.989832,4.8312605 L106.809076,4.82747899 L106.536051,4.82747899 L103.23,4.82747899 C103.01521,4.82747899 102.802689,4.99915966 102.758319,5.20966385 L102.758067,5.20966385 L102.6,5.95739495 L102.413194,6.8405042 L102.361261,7.08781515 L100.74958,14.6372269 L99.219832,21.8039496 C99.1742015,22.0147059 99.1590755,22.2723529 99.185042,22.377479 C99.2107565,22.4828572 99.6231935,22.5690756 99.8382355,22.5690756 L103.067395,22.5690756 C103.282437,22.5690756 103.554706,22.5302521 103.671429,22.4828572 C103.788907,22.4354622 103.961849,22.0131933 104.004706,21.8026891 L104.578487,18.9635294 L105.153025,16.124874 C105.153278,16.1236135 105.15353,16.1210924 105.154033,16.1193278 L105.230672,15.7414285 L105.926975,12.48 L106.541596,9.5994958 C106.587227,9.3902521 106.798991,9.21907565 107.01353,9.21857145 L117.173193,9.2135294 C117.387479,9.2135294 117.523109,9.04285715 117.47395,8.83310925 L117.47395,8.83310925 L117.47395,8.83310925 L117.47395,8.83310925 Z" id="Shape" fill="#131B28"></path>
                    <path d="M130.552941,2.19957983 C130.337647,2.20109244 129.985966,2.20235294 129.770672,2.20235294 L126.519075,2.20235294 C126.303781,2.20235294 126.028487,2.34756303 125.907227,2.52504202 L118.716554,13.0595799 C118.595294,13.2375631 118.456638,13.2110925 118.408739,13.0018488 L117.87958,10.6807563 C117.832185,10.4707563 117.616638,10.2998319 117.401596,10.2998319 L112.778823,10.2998319 C112.563529,10.2998319 112.43647,10.4684874 112.49521,10.6752101 L114.56647,17.9316807 C114.625462,18.1384034 114.63,18.4782353 114.576806,18.6864706 L113.673781,22.1984874 C113.620336,22.4069748 113.752437,22.5776471 113.967731,22.5776471 L118.536554,22.5776471 C118.751344,22.5776471 118.971176,22.4069748 119.024369,22.1984874 L119.927647,18.6864706 C119.98084,18.4782353 120.130588,18.1668908 120.259916,17.9952101 L131.933697,2.50134454 C132.063529,2.32966387 131.993193,2.19 131.778403,2.19151261 L130.552941,2.19957983 L130.552941,2.19957983 L130.552941,2.19957983 L130.552941,2.19957983 Z" id="Shape" fill="#131B28"></path>
                    <path d="M93.826891,11.287563 L93.8266385,11.2832773 C93.799916,11.5164706 93.584622,11.687647 93.369832,11.687647 L87.5089915,11.687647 C87.3063025,11.687647 87.2034455,11.5497479 87.2331935,11.3798319 C87.234958,11.3747899 87.2357145,11.3705042 87.2387395,11.3662185 C87.2387395,11.3662185 87.2367225,11.3667227 87.234706,11.3679832 C87.2362185,11.3611764 87.2362185,11.355126 87.2382355,11.3483194 C87.2382355,11.3483194 87.2490755,11.3069748 87.264706,11.2484874 C87.824622,9.76033615 88.964622,8.7834454 91.107479,8.7834454 C93.520084,8.7836975 93.9907565,9.962521 93.826891,11.287563 L93.826891,11.287563 L93.826891,11.287563 L93.826891,11.287563 Z M92.107311,4.52268907 C84.584622,4.52268907 82.8017645,9.0889916 81.8016805,13.6976471 C80.8015965,18.395042 80.887815,22.7871428 88.672437,22.7871428 L88.9487395,22.7871428 C88.9734455,22.7866387 88.9984035,22.7866387 89.023109,22.7866387 L89.2411765,22.7866387 L89.3208405,22.7866387 L89.525294,22.7866387 C89.555546,22.7861344 89.5857985,22.7861344 89.6163025,22.7861344 C89.6942015,22.7861344 89.772353,22.7856303 89.8510085,22.7856303 L89.9062185,22.7856303 C90.2142855,22.785126 90.526891,22.7836135 90.84,22.7826051 L90.8556305,22.7826051 C92.9117645,22.7745378 94.9734455,22.7589075 95.8086555,22.7523529 C96.022185,22.7490757 96.2311765,22.5768908 96.275294,22.3684034 L96.59042,20.8280673 L96.6514285,20.5283194 L97.027563,18.6912605 C97.0706725,18.4805042 96.93,18.3080673 96.714958,18.3080673 L89.7163865,18.3080673 C86.932941,18.3080673 86.1063025,17.5684034 86.4108405,15.3937815 L97.5983195,15.3937815 L97.597311,15.395042 C97.600336,15.395042 97.602605,15.3937815 97.605126,15.3937815 C97.782857,15.3905042 97.946975,15.2682353 98.012269,15.105126 C98.024622,15.0736134 98.03521,15.0410925 98.0392435,15.0073109 L98.037983,15.0085714 C99.6990755,8.74285715 99.222857,4.52319327 92.1065545,4.52319327 L92.107311,4.52268907 L92.107311,4.52268907 L92.107311,4.52268907 Z" id="Shape" fill="#131B28"></path>
                    <path d="M56.5512605,11.2636134 L56.445378,11.6384874 C56.445378,11.6397479 56.445126,11.6397479 56.445126,11.6397479 L55.600336,14.6334454 L54.7557985,17.6266386 C54.697311,17.8333613 54.4739495,18.002521 54.2584035,18.002521 L49.7873949,18.002521 C46.3958823,18.002521 45.57,15.350168 46.3958823,11.4373109 C47.2215126,7.4354622 48.8405042,4.94773109 52.1785715,4.69588236 C56.740084,4.3520168 57.652689,7.5602521 56.5512605,11.2636134 L56.5512605,11.2636134 L56.5512605,11.2636134 L56.5512605,11.2636134 Z M59.617563,17.7723529 C59.617563,17.7723529 61.7256305,12.6539496 62.2043695,9.6973109 C62.857311,5.73957985 60.8757985,0 53.222017,0 C45.6115967,0 42.3073109,5.47991595 41.0463025,11.4370588 C39.7855462,17.4373109 41.4375631,22.6996639 49.0043698,22.6565546 L54.9738655,22.6343698 L60.553109,22.6142017 C60.767899,22.6121848 60.987731,22.4417647 61.042437,22.2342857 L62.0142855,18.5271429 C62.0684875,18.3191596 61.937143,18.1479832 61.722353,18.1467227 L60.7908405,18.1414286 L59.85958,18.1358823 C59.6768065,18.1346218 59.572185,18.0163865 59.5943695,17.8593277 C59.5984035,17.8313446 59.604706,17.8021008 59.617059,17.7721009 L59.617563,17.7723529 L59.617563,17.7723529 L59.617563,17.7723529 Z" id="Shape" fill="#131B28"></path>
                    <path d="M97.2907565,14.3465546 C97.2907565,14.4882353 97.1760505,14.6031933 97.0341175,14.6031933 C96.892185,14.6031933 96.777227,14.4879832 96.777227,14.3465546 C96.777227,14.2051261 96.892185,14.0904201 97.0341175,14.0904201 C97.1760505,14.0904201 97.2907565,14.2051261 97.2907565,14.3465546 L97.2907565,14.3465546 L97.2907565,14.3465546 Z" id="Shape" fill="#131B28"></path>
                    <path d="M1.50731093,7.69134455 C-0.59394958,10.7115126 -0.332268907,14.6407563 1.27285715,17.85 C1.31092437,17.9268907 1.35100841,18.002521 1.39033614,18.0781513 C1.41554622,18.1260504 1.4392437,18.1754622 1.46546219,18.222605 C1.48033614,18.2508404 1.49697479,18.2788235 1.51235294,18.3057983 C1.53957983,18.3569748 1.56781513,18.4056303 1.59605042,18.4555462 C1.64596639,18.5435294 1.69689076,18.6307563 1.74932773,18.7182353 C1.77831933,18.7661344 1.80680673,18.8142857 1.83680673,18.8621848 C1.89453782,18.9557143 1.95403361,19.0479832 2.01478992,19.1405042 C2.04,19.179832 2.06470588,19.2191597 2.09042017,19.257479 C2.17411764,19.3822689 2.25957983,19.5068067 2.34781513,19.6293278 C2.35008404,19.632605 2.35260504,19.6358824 2.35512605,19.6391596 C2.36899159,19.6585714 2.38436975,19.6777311 2.3984874,19.6973949 C2.47487395,19.8027731 2.55352941,19.9066387 2.63319327,20.0094958 C2.66243698,20.0468067 2.69193278,20.0846219 2.72168067,20.1219327 C2.79277311,20.2111764 2.86512605,20.2999159 2.9384874,20.3886555 C2.96596639,20.4216806 2.99369748,20.4552101 3.02142857,20.4877311 C3.1202521,20.6039496 3.22084034,20.7196638 3.32369748,20.8328571 C3.32546218,20.8348739 3.32798319,20.8373949 3.3297479,20.8391596 C3.33403362,20.8442017 3.33781513,20.8469748 3.34134454,20.8520168 C3.44168067,20.9616807 3.54453781,21.0685715 3.64840336,21.1757143 C3.68067227,21.2089916 3.71369748,21.2422689 3.74697479,21.275042 C3.82764706,21.3562185 3.90957983,21.4361344 3.99226891,21.5155462 C4.02579832,21.5475631 4.05907563,21.5803362 4.09260504,21.6108404 C4.20302521,21.714958 4.31470588,21.8170588 4.42865546,21.9168908 C4.43067227,21.9186554 4.43218487,21.9201681 4.43394958,21.9211765 C4.45336135,21.9383194 4.47327731,21.9547059 4.49243698,21.9710925 C4.59277311,22.0580673 4.69487395,22.1442857 4.79773109,22.2287395 C4.83957983,22.2627731 4.88193278,22.2960504 4.92403361,22.3295798 C5.0079832,22.3968908 5.0929412,22.4631933 5.17865545,22.5284874 C5.2237815,22.5630252 5.26915965,22.5973109 5.3147899,22.6318487 C5.40932775,22.7011764 5.50436975,22.7697479 5.60042015,22.8365546 C5.6354622,22.8620168 5.6692437,22.8864706 5.7042857,22.9104202 C5.71411765,22.9172269 5.7231933,22.9242857 5.7330252,22.9308404 C5.8240336,22.9936135 5.9173109,23.0538656 6.01033615,23.1143698 C6.05042015,23.1408404 6.09,23.1685715 6.13033615,23.1942857 C6.2730252,23.2845378 6.4179832,23.3740336 6.5644538,23.4602521 C6.6040336,23.4831933 6.64436975,23.5053781 6.6844538,23.5280672 C6.79210085,23.5903361 6.9005042,23.6510925 7.01016805,23.7110924 C7.06966385,23.7431092 7.13067225,23.7731093 7.19067225,23.8038656 C7.26831935,23.8444538 7.344958,23.8855462 7.42386555,23.9248739 C7.4417647,23.9336975 7.46042015,23.9422689 7.47781515,23.9510925 C7.50957985,23.9664706 7.54159665,23.9810924 7.57310925,23.9972269 C7.69512605,24.0554622 7.81840335,24.1129412 7.9426891,24.1684033 C7.96915965,24.1802521 7.99462185,24.1918487 8.02084035,24.2034454 C8.1632773,24.2657143 8.3069748,24.3254622 8.45193275,24.3826891 C8.4867227,24.3970588 8.5217647,24.410168 8.5570588,24.4240336 C8.69117645,24.4757143 8.8273109,24.5266386 8.9639496,24.5747899 C8.98109245,24.5808403 8.9977311,24.5866387 9.01512605,24.5924369 C9.16487395,24.644874 9.31638655,24.6932773 9.46865545,24.7409244 C9.504958,24.7515126 9.5415126,24.7631092 9.57831935,24.7736975 C9.73336135,24.8205883 9.88663865,24.8763025 10.0467227,24.9057983 C20.2089075,26.7589916 23.1607563,18.7989075 23.1607563,18.7989075 C20.6810925,22.0285715 16.2804202,22.8806722 12.1111764,21.9320168 C11.9533613,21.8962185 11.8000841,21.8470588 11.6457983,21.8014286 C11.6067227,21.7898319 11.5681512,21.7779832 11.529832,21.7661344 C11.3793277,21.72 11.2300841,21.6715967 11.0818488,21.6204202 C11.0614286,21.6131093 11.0410084,21.6055462 11.0203362,21.5982353 C10.887479,21.5513446 10.7561344,21.5021848 10.6252941,21.4517647 C10.5884874,21.4368907 10.5514286,21.4230252 10.5146218,21.4081512 C10.3711765,21.3514286 10.2287395,21.2924369 10.0880672,21.2309243 C10.0590757,21.2185714 10.0313446,21.2054622 10.0028572,21.1933614 C9.88184875,21.1384034 9.76210085,21.0831933 9.64310925,21.0259664 C9.60857145,21.0095799 9.5742857,20.9931933 9.5389916,20.9760504 C9.4454622,20.9304201 9.3529412,20.8820168 9.26067225,20.8343698 C9.19890755,20.8018488 9.13613445,20.7710924 9.07487395,20.7370588 C8.96218485,20.6768067 8.8515126,20.6140336 8.74134455,20.55 C8.7040336,20.5290756 8.6662185,20.5089075 8.62865545,20.4872269 C8.48218485,20.4010084 8.337479,20.3117647 8.1942857,20.2210084 C8.1547059,20.1957983 8.11613445,20.1688235 8.0770588,20.1428572 C7.9731933,20.0757983 7.86983195,20.0077311 7.7679832,19.937395 C7.7342017,19.9147059 7.70168065,19.89 7.66840335,19.8675631 C7.57008405,19.7982353 7.4727731,19.7276471 7.3762185,19.6563025 C7.33235295,19.6237815 7.2892437,19.5907563 7.24663865,19.5582353 C7.15815125,19.4904201 7.07016805,19.422353 6.9829412,19.3522689 C6.94361345,19.3210084 6.9042857,19.2894958 6.8654622,19.2579832 C6.7547899,19.1669748 6.64512605,19.0752101 6.5369748,18.9811764 C6.52563025,18.9713446 6.5132773,18.9615126 6.50092435,18.9509244 C6.3839496,18.8483194 6.2692437,18.7429412 6.1555462,18.6370588 C6.122521,18.6055462 6.0905042,18.575042 6.0582353,18.5435294 C5.9742857,18.4636135 5.89134455,18.3829412 5.81016805,18.3002521 C5.77764705,18.2677311 5.74487395,18.2357143 5.71285715,18.2031933 C5.6094958,18.0973109 5.50789915,17.989916 5.40831935,17.8812605 C5.4032773,17.8759664 5.3982353,17.8709243 5.3931933,17.8653782 C5.28806725,17.7504202 5.1852101,17.6326891 5.08436975,17.5139496 C5.05714285,17.4811764 5.03067225,17.449916 5.0034454,17.4178992 C4.92831933,17.3273949 4.85394958,17.2356302 4.78134454,17.1431092 C4.75411765,17.110084 4.72689076,17.0757983 4.69991596,17.0417647 C4.61243697,16.9283193 4.52697479,16.815126 4.44327731,16.700168 C2.1284874,13.5428571 1.29680673,9.18756305 3.14697479,5.6110084" id="Shape" fill="#0868AC"></path>
                    <path d="M8.02991595,5.14689075 C6.5102521,7.33361345 6.5926891,10.2610084 7.77806725,12.5737815 C7.9769748,12.9615126 8.20033615,13.3376471 8.45016805,13.6958824 C8.67781515,14.0221009 8.93016805,14.4103361 9.23243695,14.6727731 C9.34210085,14.7935294 9.4565546,14.9110084 9.5735294,15.0267227 C9.6030252,15.0569748 9.6332773,15.0857143 9.6632773,15.1154622 C9.7767227,15.2256303 9.89218485,15.3340336 10.0116807,15.4391597 C10.0167227,15.4429412 10.0210084,15.4477311 10.0257983,15.4515126 C10.0270588,15.4527731 10.0283194,15.4532773 10.0290756,15.4547899 C10.1611764,15.5705042 10.2973109,15.6819328 10.4359664,15.7913446 C10.4667227,15.8147899 10.4972269,15.8392437 10.5282353,15.8634454 C10.6671428,15.9698319 10.8085715,16.0744538 10.9537815,16.1742857 C10.9580672,16.1773109 10.9615967,16.1803361 10.9661345,16.1836134 C11.0301681,16.2279832 11.0954622,16.2690757 11.1602521,16.3116806 C11.1915126,16.3318487 11.2210084,16.3535294 11.2522689,16.372437 C11.3558824,16.4389916 11.4610084,16.5037815 11.5676471,16.5657983 C11.5827731,16.5751261 11.5976471,16.5829412 11.6122689,16.5917647 C11.7042857,16.6447059 11.7975631,16.6968908 11.8910925,16.7475631 C11.9236135,16.7657143 11.9568907,16.7821008 11.9901681,16.7992437 C12.0547059,16.8330252 12.1194958,16.8675631 12.1852941,16.9000841 C12.1951261,16.9048739 12.2052101,16.9091596 12.2147899,16.9134454 C12.3486555,16.9794958 12.4837815,17.0430252 12.6216807,17.1030252 C12.6511765,17.1161345 12.6816807,17.1277311 12.7114286,17.139832 C12.8215967,17.1867227 12.9330252,17.2323529 13.044958,17.2752101 C13.092353,17.2931093 13.1402521,17.3105042 13.1876471,17.327647 C13.2892437,17.3652101 13.3910925,17.3997479 13.4939496,17.4342857 C13.5403362,17.4491596 13.5859664,17.4642857 13.632353,17.4786555 C13.7785715,17.5240336 13.9227731,17.5812605 14.075042,17.6067227 C21.9211765,18.9065546 23.732521,12.8654622 23.732521,12.8654622 C22.0996638,15.2173109 18.9375631,16.3391596 15.5631933,15.4633613 C15.4131933,15.4240336 15.2654622,15.3809244 15.1187395,15.3347899 C15.0738656,15.3211764 15.0297479,15.3065546 14.985126,15.2916806 C14.8807563,15.2578992 14.7771429,15.2221009 14.6742857,15.1845378 C14.6271429,15.167395 14.58,15.15 14.5338656,15.1321009 C14.4211765,15.0889916 14.3097479,15.0441177 14.1993278,14.9972269 C14.1690756,14.9843698 14.1388236,14.972521 14.1093278,14.9591597 C13.9709244,14.8989076 13.8345378,14.8353782 13.699916,14.7690757 C13.6305883,14.7352941 13.5627731,14.6994958 13.4947059,14.6644538 C13.4553782,14.6440336 13.4157983,14.6238656 13.3762185,14.6034454 C13.2887395,14.5560504 13.2020168,14.5068908 13.1165546,14.4569748 C13.0961345,14.4453781 13.074958,14.4342857 13.0542857,14.4219327 C12.9481513,14.3596639 12.8435294,14.2958823 12.7396638,14.229832 C12.7076471,14.2094118 12.6768908,14.187479 12.644874,14.1665546 C12.5765546,14.1221849 12.5082353,14.0773109 12.4411765,14.0316807 C12.2964706,13.9318488 12.1557983,13.8272269 12.0171429,13.7215967 C11.9851261,13.6963865 11.9531093,13.6716807 11.9218488,13.6464706 C10.4447899,12.4802521 9.2740336,10.8867227 8.71739495,9.07966385 C8.1340336,7.2055462 8.25983195,5.1017647 9.2705042,3.39453782" id="Shape" fill="#0868AC"></path>
                    <path d="M13.5158824,3.24579832 C12.6201681,4.56403361 12.5321849,6.20142855 13.1536135,7.65756305 C13.8090757,9.2029412 15.1522689,10.4155462 16.7200841,10.9903361 C16.7846219,11.0145378 16.8494118,11.0359664 16.9147059,11.0581512 C16.9434454,11.0669748 16.9716807,11.0768067 17.0006723,11.085126 C17.0929412,11.1141177 17.1847059,11.1478992 17.28,11.1657983 C21.612353,12.0027731 22.7873949,8.942521 23.1002521,8.4922689 C22.0709243,9.97436975 20.3410084,10.330084 18.2185714,9.815042 C18.0509244,9.7742017 17.8666386,9.7136975 17.705042,9.6564706 C17.4978152,9.58260505 17.2936135,9.49840335 17.0952101,9.40310925 C16.7183194,9.22210085 16.3590757,9.0022689 16.0260504,8.75067225 C14.1267227,7.30966385 12.9468908,4.5605042 14.1862185,2.32159664" id="Shape" fill="#0868AC"></path>
                </g>
            </g>
        </g>
    </g>
</svg>