<?xml version="1.0" encoding="UTF-8" standalone="no"?>
<svg width="61px" height="65px" viewBox="0 0 61 65" version="1.1" xmlns="http://www.w3.org/2000/svg" xmlns:xlink="http://www.w3.org/1999/xlink" xmlns:sketch="http://www.bohemiancoding.com/sketch/ns">
    <!-- Generator: Sketch 3.4.3 (16618) - http://www.bohemiancoding.com/sketch -->
    <title>logo-angular</title>
    <desc>Created with Sketch.</desc>
    <defs></defs>
    <g id="Page-1" stroke="none" stroke-width="1" fill="none" fill-rule="evenodd" sketch:type="MSPage">
        <g id="logo-angular" sketch:type="MSLayerGroup">
            <g id="Page-1" sketch:type="MSShapeGroup">
                <g id="angular-color">
                    <g id="Group">
                        <path d="M57.8106061,13.0492424 L29.8901515,3.29924243 L29.8901515,61.4053031 L53.4280303,48.6515151 L57.8106061,13.0492424 L57.8106061,13.0492424 Z" id="Shape" fill="#BA2731"></path>
                        <path d="M3.10227272,13.0492424 L29.8901515,3.29924243 L29.8901515,61.4053031 L7.38636364,48.8977272 L3.10227272,13.0492424 L3.10227272,13.0492424 Z" id="Shape" fill="#E72734"></path>
                        <g id="Shape">
                            <path d="M24.7689394,32.5984849 L29.8901515,20.3371212 L29.8901515,7.28787879 L11.9166667,47.2727272 L18.1212121,47.2727272 L22.3560606,38.0151515 L29.8901515,38.0151515 L29.8901515,32.5984849 L24.7689394,32.5984849 L24.7689394,32.5984849 Z" fill="#FFFFFF"></path>
                            <path d="M29.8901515,7.28787879 L29.8901515,20.3371212 L36.3901515,32.5984849 L29.8901515,32.5984849 L29.8901515,38.0151515 L38.7045454,38.0151515 L42.7424243,47.2727272 L49.0454546,47.2727272 L29.8901515,7.28787879 L29.8901515,7.28787879 Z" fill="#B4B3B4"></path>
                            <path d="M29.8901515,0 L0,10.8333333 L4.77651515,50.7689394 L29.840909,64.7045454 L56.0871212,50.4734849 L60.9621212,10.7840909 L29.8901515,0 L29.8901515,0 L29.8901515,0 Z M53.4280303,48.6515151 L29.8901515,61.405303 L7.38636364,48.8977272 L3.10227272,13.0492424 L29.8901515,3.29924243 L57.8106061,13 L53.4280303,48.6515151 L53.4280303,48.6515151 L53.4280303,48.6515151 Z" fill="#B4B3B4"></path>
                        </g>
                    </g>
                </g>
            </g>
        </g>
    </g>
</svg>