<?xml version="1.0" encoding="iso-8859-1"?>
<!-- Generator: Adobe Illustrator 19.0.0, SVG Export Plug-In . SVG Version: 6.00 Build 0)  -->
<svg xmlns="http://www.w3.org/2000/svg" xmlns:xlink="http://www.w3.org/1999/xlink" version="1.1" id="Capa_1" x="0px" y="0px" viewBox="0 0 512 512" style="enable-background:new 0 0 512 512;" xml:space="preserve" width="512px" height="512px">
<g>
	<g>
		<path d="M230.4,110.933H42.667C19.14,110.933,0,130.074,0,153.6v273.067c0,23.526,19.14,42.667,42.667,42.667H153.6v-17.067    H42.667c-14.114,0-25.6-11.486-25.6-25.6V153.6c0-14.114,11.486-25.6,25.6-25.6H230.4c14.114,0,25.6,11.486,25.6,25.6v8.533    h17.067V153.6C273.067,130.074,253.926,110.933,230.4,110.933z" fill="#b2b8bc"/>
	</g>
</g>
<g>
	<g>
		<path d="M187.733,0h-102.4c-14.114,0-25.6,11.486-25.6,25.6s11.486,25.6,25.6,25.6h102.4c14.114,0,25.6-11.486,25.6-25.6    S201.847,0,187.733,0z M187.733,34.133h-102.4c-4.702,0-8.533-3.831-8.533-8.533c0-4.702,3.831-8.533,8.533-8.533h102.4    c4.702,0,8.533,3.831,8.533,8.533C196.267,30.302,192.435,34.133,187.733,34.133z" fill="#b2b8bc"/>
	</g>
</g>
<g>
	<g>
		<rect x="93.867" y="42.667" width="17.067" height="76.8" fill="#b2b8bc"/>
	</g>
</g>
<g>
	<g>
		<rect x="162.133" y="42.667" width="17.067" height="76.8" fill="#b2b8bc"/>
	</g>
</g>
<g>
	<g>
		<rect x="51.2" y="256" width="17.067" height="153.6" fill="#b2b8bc"/>
	</g>
</g>
<g>
	<g>
		<rect x="153.6" y="162.133" width="17.067" height="68.267" fill="#b2b8bc"/>
	</g>
</g>
<g>
	<g>
		<path d="M38.4,452.267c-16.469,0-29.867,13.397-29.867,29.867S21.931,512,38.4,512c16.469,0,29.867-13.397,29.867-29.867    S54.869,452.267,38.4,452.267z M38.4,494.933c-7.057,0-12.8-5.743-12.8-12.8s5.743-12.8,12.8-12.8s12.8,5.743,12.8,12.8    S45.457,494.933,38.4,494.933z" fill="#b2b8bc"/>
	</g>
</g>
<g>
	<g>
		<rect x="102.4" y="162.133" width="17.067" height="247.467" fill="#b2b8bc"/>
	</g>
</g>
<g>
	<g>
		<path d="M93.261,235.759l-17.067-42.667c-0.853-2.133-2.534-3.831-4.659-4.71c-2.133-0.888-4.523-0.879-6.63,0.043l-59.733,25.6    C2.031,215.364,0,218.453,0,221.867v51.2c0,2.893,1.459,5.581,3.883,7.159c1.408,0.905,3.029,1.374,4.651,1.374    c1.178,0,2.355-0.239,3.473-0.742l76.8-34.133C92.996,244.864,94.959,240.026,93.261,235.759z M17.067,259.934V227.49    l46.524-19.934l10.769,26.914L17.067,259.934z" fill="#b2b8bc"/>
	</g>
</g>
<g>
	<g>
		<rect x="51.2" y="162.133" width="17.067" height="42.667" fill="#b2b8bc"/>
	</g>
</g>
<g>
	<g>
		<rect x="204.8" y="162.133" width="17.067" height="68.267" fill="#b2b8bc"/>
	</g>
</g>
<g>
	<g>
		<path d="M234.667,452.267c-16.469,0-29.867,13.397-29.867,29.867S218.197,512,234.667,512c16.469,0,29.867-13.397,29.867-29.867    S251.136,452.267,234.667,452.267z M234.667,494.933c-7.057,0-12.8-5.743-12.8-12.8s5.743-12.8,12.8-12.8s12.8,5.743,12.8,12.8    S241.724,494.933,234.667,494.933z" fill="#b2b8bc"/>
	</g>
</g>
<g>
	<g>
		<path d="M469.333,213.333H170.667C147.14,213.333,128,232.474,128,256v170.667c0,23.526,19.14,42.667,42.667,42.667h298.667    c23.526,0,42.667-19.14,42.667-42.667V256C512,232.474,492.86,213.333,469.333,213.333z M494.933,426.667    c0,14.114-11.486,25.6-25.6,25.6H170.667c-14.114,0-25.6-11.486-25.6-25.6V256c0-14.114,11.486-25.6,25.6-25.6h298.667    c14.114,0,25.6,11.486,25.6,25.6V426.667z" fill="#b2b8bc"/>
	</g>
</g>
<g>
	<g>
		<path d="M358.4,179.2h-76.8c-4.719,0-8.533,3.823-8.533,8.533v34.133h17.067v-25.6h59.733v25.6h17.067v-34.133    C366.933,183.023,363.119,179.2,358.4,179.2z" fill="#b2b8bc"/>
	</g>
</g>
<g>
	<g>
		<path d="M358.4,145.067h-76.8c-23.526,0-42.667,19.14-42.667,42.667v34.133H256v-34.133c0-14.114,11.486-25.6,25.6-25.6h76.8    c14.114,0,25.6,11.486,25.6,25.6v34.133h17.067v-34.133C401.067,164.207,381.926,145.067,358.4,145.067z" fill="#b2b8bc"/>
	</g>
</g>
<g>
	<g>
		<path d="M356.804,310.775l-42.667-59.733c-3.2-4.489-10.684-4.489-13.884,0l-42.667,59.733c-1.86,2.603-2.108,6.016-0.649,8.866    c1.468,2.842,4.395,4.625,7.595,4.625h85.333c3.2,0,6.127-1.783,7.586-4.625C358.912,316.792,358.665,313.378,356.804,310.775z     M281.114,307.2l26.086-36.514l26.078,36.514H281.114z" fill="#b2b8bc"/>
	</g>
</g>
<g>
	<g>
		<path d="M440.004,335.59c-26.846-8.747-54.579,2.33-61.867,24.67c-3.652,11.179-1.749,23.296,5.359,34.133    c6.716,10.24,17.391,18.15,30.046,22.289c6.238,2.031,12.518,2.995,18.586,2.995c20.028,0,37.692-10.513,43.298-27.665    C482.722,369.656,466.833,344.346,440.004,335.59z M459.187,386.722c-4.369,13.414-22.485,19.567-40.354,13.739    c-8.994-2.944-16.478-8.422-21.077-15.428c-4.207-6.417-5.419-13.329-3.413-19.473c0,0,0,0,0.009,0    c3.251-9.975,14.106-15.932,26.803-15.932c4.378,0,8.969,0.7,13.534,2.193C452.574,357.666,463.556,373.316,459.187,386.722z" fill="#b2b8bc"/>
	</g>
</g>
<g>
	<g>
		<path d="M166.4,452.267c-16.469,0-29.867,13.397-29.867,29.867S149.931,512,166.4,512c16.469,0,29.867-13.397,29.867-29.867    S182.869,452.267,166.4,452.267z M166.4,494.933c-7.057,0-12.8-5.743-12.8-12.8s5.743-12.8,12.8-12.8s12.8,5.743,12.8,12.8    S173.457,494.933,166.4,494.933z" fill="#b2b8bc"/>
	</g>
</g>
<g>
	<g>
		<path d="M473.6,452.267c-16.469,0-29.867,13.397-29.867,29.867S457.131,512,473.6,512c16.469,0,29.867-13.397,29.867-29.867    S490.069,452.267,473.6,452.267z M473.6,494.933c-7.057,0-12.8-5.743-12.8-12.8s5.743-12.8,12.8-12.8s12.8,5.743,12.8,12.8    S480.657,494.933,473.6,494.933z" fill="#b2b8bc"/>
	</g>
</g>
<g>
	<g>
		<rect x="204.8" y="392.533" width="17.067" height="68.267" fill="#b2b8bc"/>
	</g>
</g>
<g>
	<g>
		<path d="M213.333,213.333H179.2c-4.71,0-8.533,3.823-8.533,8.533v102.4h17.067V230.4H204.8v110.933h17.067V221.867    C221.867,217.156,218.044,213.333,213.333,213.333z" fill="#b2b8bc"/>
	</g>
</g>
<g>
	<g>
		<rect x="170.667" y="366.933" width="17.067" height="93.867" fill="#b2b8bc"/>
	</g>
</g>
<g>
	<g>
		<rect x="452.267" y="401.067" width="17.067" height="59.733" fill="#b2b8bc"/>
	</g>
</g>
<g>
	<g>
		<path d="M460.8,213.333h-34.133c-4.719,0-8.533,3.823-8.533,8.533v119.467H435.2V230.4h17.067v128h17.067V221.867    C469.333,217.156,465.519,213.333,460.8,213.333z" fill="#b2b8bc"/>
	</g>
</g>
<g>
	<g>
		<rect x="418.133" y="409.6" width="17.067" height="51.2" fill="#b2b8bc"/>
	</g>
</g>
<g>
	<g>
		<path d="M243.234,351.019l-102.4-59.733l-8.602,14.754l95.488,55.697l-9.37,18.731l-77.431-46.456l-8.781,14.635l85.333,51.2    c1.348,0.802,2.859,1.22,4.395,1.22c0.802,0,1.604-0.111,2.389-0.341c2.278-0.666,4.181-2.253,5.248-4.378l17.067-34.133    C248.576,358.187,247.125,353.297,243.234,351.019z" fill="#b2b8bc"/>
	</g>
</g>
<g>
</g>
<g>
</g>
<g>
</g>
<g>
</g>
<g>
</g>
<g>
</g>
<g>
</g>
<g>
</g>
<g>
</g>
<g>
</g>
<g>
</g>
<g>
</g>
<g>
</g>
<g>
</g>
<g>
</g>
</svg>
