<?xml version="1.0" encoding="iso-8859-1"?>
<!-- Generator: Adobe Illustrator 19.0.0, SVG Export Plug-In . SVG Version: 6.00 Build 0)  -->
<svg xmlns="http://www.w3.org/2000/svg" xmlns:xlink="http://www.w3.org/1999/xlink" version="1.1" id="Capa_1" x="0px" y="0px" viewBox="0 0 512 512" style="enable-background:new 0 0 512 512;" xml:space="preserve" width="512px" height="512px">
<g>
	<g>
		<rect x="247.467" y="8.533" width="17.067" height="93.867" fill="#a4a4a4"/>
	</g>
</g>
<g>
	<g>
		<path d="M311.014,26.496l-51.2-25.6c-2.645-1.314-5.786-1.178-8.303,0.375c-2.509,1.562-4.045,4.301-4.045,7.262v51.2    c0,2.953,1.536,5.7,4.045,7.262c1.374,0.845,2.927,1.271,4.489,1.271c1.306,0,2.611-0.299,3.814-0.896l51.2-25.6    c2.893-1.451,4.719-4.403,4.719-7.637S313.907,27.947,311.014,26.496z M264.533,45.926V22.34l23.586,11.793L264.533,45.926z" fill="#a4a4a4"/>
	</g>
</g>
<g>
	<g>
		<path d="M348.425,148.864c-1.613-2.441-4.42-4.105-7.296-3.797c-2.927,0.068-5.606,1.63-7.117,4.139l-18.5,30.831l-52.318-82.219    c-1.527-2.406-4.156-3.883-7.006-3.951c-3.285-0.068-5.555,1.306-7.185,3.644l-59.733,85.333l13.986,9.779l52.403-74.863    l52.872,83.081c1.579,2.492,4.233,3.874,7.305,3.951c2.961-0.043,5.683-1.604,7.211-4.139l18.671-31.104l43.716,65.579    l14.191-9.464L348.425,148.864z" fill="#a4a4a4"/>
	</g>
</g>
<g>
	<g>
		<path d="M177.408,148.352c-1.621-2.074-4.105-3.294-6.741-3.294c-0.017,0-0.026,0-0.034,0c-2.654,0.017-5.146,1.254-6.75,3.354    L52.949,293.478l13.559,10.368l104.218-136.286l52.941,68.07l13.474-10.479L177.408,148.352z" fill="#a4a4a4"/>
	</g>
</g>
<g>
	<g>
		<path d="M330.94,498.133L262.673,412.8c-1.519-1.894-3.78-3.046-6.195-3.183c-2.423-0.137-4.796,0.768-6.511,2.483L207.3,454.767    l12.066,12.066l35.925-35.925l51.217,64.026H17.067V301.508l17.357-23.142l69.905,85.436l13.21-10.803l-76.8-93.867    c-1.664-2.031-4.233-3.2-6.784-3.132c-2.628,0.051-5.077,1.314-6.648,3.413l-25.6,34.133C0.597,295.023,0,296.815,0,298.667v204.8    C0,508.186,3.823,512,8.533,512h315.733c3.285,0,6.263-1.886,7.697-4.83C333.38,504.209,332.988,500.702,330.94,498.133z" fill="#a4a4a4"/>
	</g>
</g>
<g>
	<g>
		<path d="M417.229,192.444c-1.34-2.68-3.977-4.463-6.963-4.693c-2.987-0.222-5.871,1.109-7.612,3.55l-42.667,59.733l13.884,9.916    l34.432-48.196l70.46,140.928l15.266-7.637L417.229,192.444z" fill="#a4a4a4"/>
	</g>
</g>
<g>
	<g>
		<path d="M146.825,326.81c-1.647-1.963-3.925-2.901-6.639-3.055c-2.56,0.034-4.966,1.212-6.571,3.208L78.66,395.742l13.338,10.65    l48.435-60.621l15.147,18.099l13.09-10.948L146.825,326.81z" fill="#a4a4a4"/>
	</g>
</g>
<g>
	<g>
		<path d="M506.735,324.915c-3.191-1.323-6.852-0.589-9.301,1.852l-45.798,45.798l-36.702-29.363    c-3.388-2.714-8.286-2.449-11.366,0.631l-25.6,25.6l12.066,12.066l20.198-20.198l36.702,29.363    c3.379,2.705,8.286,2.449,11.366-0.631l36.634-36.634v141.534H324.267V512h179.2c4.719,0,8.533-3.823,8.533-8.533V332.8    C512,329.344,509.926,326.229,506.735,324.915z" fill="#a4a4a4"/>
	</g>
</g>
<g>
	<g>
		<rect x="59.733" y="443.733" width="17.067" height="25.6" fill="#a4a4a4"/>
	</g>
</g>
<g>
	<g>
		<path d="M101.965,432.504l-25.6-76.8c-1.161-3.49-4.42-5.837-8.098-5.837s-6.929,2.347-8.098,5.837l-25.6,76.8    c-0.862,2.594-0.427,5.461,1.178,7.689c1.604,2.227,4.181,3.541,6.921,3.541h51.2c2.739,0,5.316-1.323,6.921-3.541    C102.392,437.973,102.835,435.106,101.965,432.504z M54.502,426.667l13.764-41.284l13.764,41.284H54.502z" fill="#a4a4a4"/>
	</g>
</g>
<g>
	<g>
		<rect x="170.667" y="392.533" width="17.067" height="25.6" fill="#a4a4a4"/>
	</g>
</g>
<g>
	<g>
		<path d="M212.898,381.303l-25.6-76.8c-1.161-3.49-4.42-5.837-8.098-5.837s-6.929,2.347-8.098,5.837l-25.6,76.8    c-0.862,2.594-0.427,5.461,1.178,7.689c1.604,2.227,4.181,3.541,6.921,3.541h51.2c2.739,0,5.316-1.323,6.921-3.541    C213.325,386.773,213.769,383.906,212.898,381.303z M165.436,375.467l13.764-41.284l13.764,41.284H165.436z" fill="#a4a4a4"/>
	</g>
</g>
<g>
	<g>
		
			<rect x="196.283" y="374.585" transform="matrix(0.7593 -0.6508 0.6508 0.7593 -220.0666 232.9336)" width="17.067" height="78.68" fill="#a4a4a4"/>
	</g>
</g>
<g>
	<g>
		<path d="M161.698,500.77l-25.6-76.8c-1.161-3.49-4.42-5.837-8.098-5.837c-3.678,0-6.929,2.347-8.098,5.837l-25.6,76.8    c-0.862,2.594-0.427,5.461,1.178,7.689c1.604,2.227,4.181,3.541,6.921,3.541h51.2c2.739,0,5.316-1.323,6.921-3.541    C162.125,506.24,162.569,503.373,161.698,500.77z M114.236,494.933L128,453.649l13.764,41.284H114.236z" fill="#a4a4a4"/>
	</g>
</g>
<g>
	<g>
		<rect x="366.933" y="435.2" width="17.067" height="25.6" fill="#a4a4a4"/>
	</g>
</g>
<g>
	<g>
		<path d="M409.156,423.97l-25.6-76.8c-1.152-3.49-4.412-5.837-8.09-5.837s-6.929,2.347-8.098,5.837l-25.6,76.8    c-0.87,2.594-0.435,5.461,1.169,7.689c1.613,2.227,4.19,3.541,6.929,3.541h51.2c2.739,0,5.316-1.323,6.921-3.541    C409.592,429.44,410.035,426.573,409.156,423.97z M361.711,418.133l13.756-41.284l13.764,41.284H361.711z" fill="#a4a4a4"/>
	</g>
</g>
<g>
	<g>
		
			<rect x="267.001" y="414.937" transform="matrix(0.7353 -0.6777 0.6777 0.7353 -201.739 330.3825)" width="110.213" height="17.066" fill="#a4a4a4"/>
	</g>
</g>
<g>
	<g>
		<rect x="443.733" y="469.333" width="17.067" height="25.6" fill="#a4a4a4"/>
	</g>
</g>
<g>
	<g>
		<path d="M485.956,458.103l-25.6-76.8c-1.152-3.49-4.412-5.837-8.09-5.837c-3.678,0-6.929,2.347-8.098,5.837l-25.6,76.8    c-0.87,2.594-0.435,5.461,1.169,7.689c1.613,2.227,4.19,3.541,6.929,3.541h51.2c2.739,0,5.316-1.323,6.921-3.541    S486.835,460.706,485.956,458.103z M438.511,452.267l13.756-41.284l13.764,41.284H438.511z" fill="#a4a4a4"/>
	</g>
</g>
<g>
	<g>
		<path d="M254.02,199.339c-3.243-3.891-9.865-3.891-13.107,0l-42.667,51.2l13.107,10.931l36.113-43.341l36.105,43.332    l13.116-10.923L254.02,199.339z" fill="#a4a4a4"/>
	</g>
</g>
<g>
</g>
<g>
</g>
<g>
</g>
<g>
</g>
<g>
</g>
<g>
</g>
<g>
</g>
<g>
</g>
<g>
</g>
<g>
</g>
<g>
</g>
<g>
</g>
<g>
</g>
<g>
</g>
<g>
</g>
</svg>
