<?xml version="1.0" encoding="iso-8859-1"?>
<!-- Generator: Adobe Illustrator 19.0.0, SVG Export Plug-In . SVG Version: 6.00 Build 0)  -->
<svg xmlns="http://www.w3.org/2000/svg" xmlns:xlink="http://www.w3.org/1999/xlink" version="1.1" id="Capa_1" x="0px" y="0px" viewBox="0 0 512.003 512.003" style="enable-background:new 0 0 512.003 512.003;" xml:space="preserve" width="512px" height="512px">
<g>
	<g>
		<path d="M460.768,409.62v85.319H55.502c-21.168,0-38.394-17.226-38.394-38.394V162.195H0.044v294.351    c0,30.578,24.879,55.457,55.457,55.457h413.798c4.718,0,8.532-3.814,8.532-8.532V409.62H460.768z" fill="#b2b8bc"/>
	</g>
</g>
<g>
	<g>
		<path d="M469.299,196.322H55.502c-21.168,0-38.394-17.226-38.394-38.394s17.226-38.394,38.394-38.394H204.81v-17.064H55.502    c-30.578,0-55.457,24.879-55.457,55.457s24.879,55.457,55.457,55.457h405.266v76.787h17.064v-85.319    C477.831,200.145,474.018,196.322,469.299,196.322z" fill="#b2b8bc"/>
	</g>
</g>
<g>
	<g>
		<path d="M503.427,102.471h-68.255v17.064h59.723v281.553h-34.128v17.064h42.66c4.718,0,8.532-3.814,8.532-8.532V111.003    C511.959,106.294,508.145,102.471,503.427,102.471z" fill="#b2b8bc"/>
	</g>
</g>
<g>
	<g>
		<path d="M341.321,315.769c-18.821,0-34.128,15.306-34.128,34.128s15.306,34.128,34.128,34.128    c18.821,0,34.128-15.306,34.128-34.128S360.142,315.769,341.321,315.769z M341.321,366.961c-9.411,0-17.064-7.653-17.064-17.064    s7.653-17.064,17.064-17.064s17.064,7.653,17.064,17.064S350.731,366.961,341.321,366.961z" fill="#b2b8bc"/>
	</g>
</g>
<g>
	<g>
		<path d="M503.427,281.642H341.321c-37.634,0-68.255,30.621-68.255,68.255c0,37.634,30.621,68.255,68.255,68.255h162.106    c4.718,0,8.532-3.814,8.532-8.532V290.173C511.959,285.455,508.145,281.642,503.427,281.642z M494.895,401.088H341.321    c-28.232,0-51.191-22.959-51.191-51.191s22.959-51.191,51.191-51.191h153.574V401.088z" fill="#b2b8bc"/>
	</g>
</g>
<g>
	<g>
		<path d="M494.238,157.579L351.525,12.656c-0.06-0.068-0.128-0.128-0.188-0.196c-16.646-16.629-43.709-16.595-60.287-0.009    L102.077,198.788l11.979,12.149l189.016-186.38c9.948-9.931,26.099-10.008,36.081-0.137c0.034,0.034,0.068,0.06,0.094,0.094    l142.858,145.068c9.888,9.948,9.888,26.133,0.034,36.056l-18.855,18.77l12.03,12.09l18.89-18.804    C510.696,201.117,510.696,174.131,494.238,157.579z" fill="#b2b8bc"/>
	</g>
</g>
<g>
	<g>
		<path d="M415.207,162.203c-23.522,0-42.66,19.137-42.66,42.66h17.064c0-14.112,11.484-25.596,25.596-25.596    s25.596,11.484,25.596,25.596h17.064C457.867,181.34,438.73,162.203,415.207,162.203z" fill="#b2b8bc"/>
	</g>
</g>
<g>
	<g>
		
			<rect x="228.662" y="98.253" transform="matrix(0.7071 -0.7071 0.7071 0.7071 7.3682 231.3582)" width="108.593" height="17.064" fill="#b2b8bc"/>
	</g>
</g>
<g>
	<g>
		<rect x="295.463" y="106.747" transform="matrix(0.7071 -0.7071 0.7071 0.7071 13.858 264.0146)" width="60.32" height="17.064" fill="#b2b8bc"/>
	</g>
</g>
<g>
	<g>
		<path d="M64.034,136.608c-30.578,0-55.457,24.879-55.457,55.457H25.64c0-21.168,17.226-38.394,38.394-38.394h106.649v-17.064    H64.034z" fill="#b2b8bc"/>
	</g>
</g>
<g>
	<g>
		<path d="M17.117,204.889l-17.064-0.051c-0.009,3.396,0.29,6.8,0.904,10.11l16.782-3.106    C17.321,209.564,17.108,207.226,17.117,204.889z" fill="#b2b8bc"/>
	</g>
</g>
<g>
	<g>
		<g>
			<rect x="114.355" y="238.982" width="17.32" height="17.064" fill="#b2b8bc"/>
			<rect x="183.642" y="238.982" width="17.32" height="17.064" fill="#b2b8bc"/>
			<rect x="149.003" y="238.982" width="17.32" height="17.064" fill="#b2b8bc"/>
			<path d="M22.91,223.94L9.438,234.418c4.206,5.401,9.308,9.948,15.17,13.506l8.856-14.581     C29.385,230.868,25.836,227.703,22.91,223.94z" fill="#b2b8bc"/>
			<rect x="79.724" y="238.982" width="17.32" height="17.064" fill="#b2b8bc"/>
			<path d="M46.671,238.368l-3.097,16.782c3.327,0.614,6.723,0.93,10.093,0.93c0.026,0,0.06,0,0.085-0.008l8.651-0.026v-17.064     l-8.668,0.026C51.355,238.811,48.992,238.794,46.671,238.368z" fill="#b2b8bc"/>
			<rect x="287.561" y="238.982" width="17.32" height="17.064" fill="#b2b8bc"/>
			<rect x="218.282" y="238.982" width="17.32" height="17.064" fill="#b2b8bc"/>
			<rect x="391.48" y="238.982" width="17.311" height="17.064" fill="#b2b8bc"/>
			<rect x="426.119" y="238.982" width="17.32" height="17.064" fill="#b2b8bc"/>
			<rect x="356.84" y="238.982" width="17.32" height="17.064" fill="#b2b8bc"/>
			<rect x="322.201" y="238.982" width="17.311" height="17.064" fill="#b2b8bc"/>
			<rect x="252.922" y="238.982" width="17.311" height="17.064" fill="#b2b8bc"/>
		</g>
	</g>
</g>
<g>
	<g>
		<rect x="460.81" y="238.982" width="8.532" height="17.064" fill="#b2b8bc"/>
	</g>
</g>
<g>
	<g>
		<path d="M17.117,418.178l-17.064-0.051c-0.009,3.404,0.29,6.808,0.904,10.119l16.782-3.123    C17.321,422.862,17.108,420.516,17.117,418.178z" fill="#b2b8bc"/>
	</g>
</g>
<g>
	<g>
		<g>
			<rect x="218.282" y="452.28" width="17.32" height="17.064" fill="#b2b8bc"/>
			<rect x="183.642" y="452.28" width="17.32" height="17.064" fill="#b2b8bc"/>
			<rect x="149.003" y="452.28" width="17.32" height="17.064" fill="#b2b8bc"/>
			<path d="M22.91,437.23L9.438,447.715c4.206,5.409,9.308,9.948,15.17,13.506l8.856-14.581     C29.385,444.166,25.836,440.992,22.91,437.23z" fill="#b2b8bc"/>
			<path d="M46.671,451.666l-3.08,16.782c3.344,0.614,6.757,0.922,10.144,0.922l8.668-0.026V452.28l-8.668,0.026     C51.372,452.305,49,452.092,46.671,451.666z" fill="#b2b8bc"/>
			<rect x="79.724" y="452.28" width="17.32" height="17.064" fill="#b2b8bc"/>
			<rect x="114.363" y="452.28" width="17.32" height="17.064" fill="#b2b8bc"/>
			<rect x="391.48" y="452.28" width="17.311" height="17.064" fill="#b2b8bc"/>
			<rect x="356.84" y="452.28" width="17.32" height="17.064" fill="#b2b8bc"/>
			<rect x="426.119" y="452.28" width="17.32" height="17.064" fill="#b2b8bc"/>
			<rect x="252.922" y="452.28" width="17.32" height="17.064" fill="#b2b8bc"/>
			<rect x="287.561" y="452.28" width="17.32" height="17.064" fill="#b2b8bc"/>
			<rect x="322.201" y="452.28" width="17.311" height="17.064" fill="#b2b8bc"/>
		</g>
	</g>
</g>
<g>
	<g>
		<rect x="460.81" y="452.28" width="8.532" height="17.064" fill="#b2b8bc"/>
	</g>
</g>
<g>
	<g>
		<rect x="469.342" y="136.599" width="34.128" height="17.064" fill="#b2b8bc"/>
	</g>
</g>
<g>
	<g>
		<rect x="342.793" y="136.586" transform="matrix(0.7071 -0.7071 0.7071 0.7071 4.8563 301.96)" width="48.265" height="17.064" fill="#b2b8bc"/>
	</g>
</g>
<g>
	<g>
		
			<rect x="301.864" y="183.527" transform="matrix(0.7071 -0.7071 0.7071 0.7071 -42.0905 282.5013)" width="36.201" height="17.064" fill="#b2b8bc"/>
	</g>
</g>
<g>
</g>
<g>
</g>
<g>
</g>
<g>
</g>
<g>
</g>
<g>
</g>
<g>
</g>
<g>
</g>
<g>
</g>
<g>
</g>
<g>
</g>
<g>
</g>
<g>
</g>
<g>
</g>
<g>
</g>
</svg>
