<?xml version="1.0" encoding="iso-8859-1"?>
<!-- Generator: Adobe Illustrator 19.0.0, SVG Export Plug-In . SVG Version: 6.00 Build 0)  -->
<svg version="1.1" id="Capa_1" xmlns="http://www.w3.org/2000/svg" xmlns:xlink="http://www.w3.org/1999/xlink" x="0px" y="0px"
	 viewBox="0 0 511.995 511.995" style="enable-background:new 0 0 511.995 511.995;" xml:space="preserve">
<g>
	<g>
		<path d="M289.437,23.138c-4.468-10.497-13.268-18.47-24.541-21.975c-16.492-4.306-33.87,3.641-41.425,18.862
			c-12.339,24.789-18.785,52.545-18.632,80.199v266.817c0,0.537,0.051,1.074,0.154,1.612l22.955,118.938
			c1.936,13.925,13.993,24.405,28.029,24.405c0.009,0,0.026,0,0.043,0c14.053,0,26.102-10.488,27.961-23.961l23.023-119.381
			c0.111-0.529,0.162-1.074,0.162-1.612V100.207C307.106,73.526,300.915,46.742,289.437,23.138z M290.111,366.214l-22.938,119.023
			c-0.767,5.534-5.568,9.704-11.179,9.704c-5.602,0-10.395-4.17-11.222-10.139l-22.87-118.58V100.182
			c-0.136-25.044,5.688-50.14,16.85-72.567c3.991-8.033,13.2-12.22,21.454-10.062c6.097,1.902,11.043,6.37,13.712,12.637
			c10.54,21.702,16.133,45.919,16.193,70.034V366.214z"/>
	</g>
</g>
<g>
	<g>
		<path d="M217.732,189.163c-2.584-1.543-5.799-1.603-8.425-0.171L4.654,299.847c-2.754,1.492-4.468,4.366-4.468,7.495v51.163
			c0,2.797,1.364,5.406,3.667,7.009c1.45,0.998,3.147,1.518,4.861,1.518c1.006,0,2.021-0.171,2.993-0.537l204.653-76.745
			c3.326-1.253,5.534-4.434,5.534-7.99v-85.272C221.893,193.487,220.316,190.707,217.732,189.163z M204.839,275.851L17.24,346.201
			v-33.776l187.599-101.61V275.851z"/>
	</g>
</g>
<g>
	<g>
		<path d="M507.35,299.847L302.697,188.993c-2.643-1.424-5.841-1.373-8.425,0.171c-2.575,1.535-4.161,4.315-4.161,7.325v85.272
			c0,3.556,2.2,6.745,5.526,7.99l204.653,76.745c0.981,0.358,1.995,0.537,3.002,0.537c1.714,0,3.411-0.512,4.843-1.518
			c2.302-1.595,3.675-4.212,3.675-7.009v-51.163C511.81,304.213,510.096,301.339,507.35,299.847z M494.764,346.201l-187.599-70.35
			v-65.046l187.599,101.619V346.201z"/>
	</g>
</g>
<g>
	<g>
		<path d="M136.621,196.497c-14.104,0-25.582,11.478-25.582,25.582v25.582h17.054v-25.582c0-4.699,3.829-8.527,8.527-8.527
			s8.527,3.829,8.527,8.527v8.527h17.054v-8.527C162.203,207.974,150.725,196.497,136.621,196.497z"/>
	</g>
</g>
<g>
	<g>
		<path d="M59.876,239.124c-14.104,0-25.582,11.478-25.582,25.582v25.582h17.054v-25.582c0-4.698,3.829-8.519,8.527-8.519
			c4.698,0,8.527,3.82,8.527,8.519h17.054C85.458,250.602,73.98,239.124,59.876,239.124z"/>
	</g>
</g>
<g>
	<g>
		<path d="M375.383,196.497c-14.104,0-25.582,11.478-25.582,25.582v8.527h17.054v-8.527c0-4.699,3.82-8.527,8.527-8.527
			c4.707,0,8.527,3.829,8.527,8.527v25.582h17.054v-25.582C400.965,207.974,389.487,196.497,375.383,196.497z"/>
	</g>
</g>
<g>
	<g>
		<path d="M452.128,239.124c-14.104,0-25.582,11.478-25.582,25.582h17.054c0-4.698,3.82-8.519,8.527-8.519
			c4.707,0,8.527,3.82,8.527,8.519v25.582h17.054v-25.582C477.71,250.602,466.232,239.124,452.128,239.124z"/>
	</g>
</g>
<g>
	<g>
		<path d="M237.532,478.006l-92.392,15.4v-19.212l81.137-48.682l-8.775-14.624l-85.272,51.163c-2.567,1.535-4.136,4.306-4.136,7.308
			v34.109c0,2.507,1.109,4.895,3.019,6.506c1.552,1.313,3.505,2.021,5.509,2.021c0.46,0,0.929-0.043,1.39-0.111l102.327-17.054
			L237.532,478.006z"/>
	</g>
</g>
<g>
	<g>
		<path d="M379.766,462.051l-85.272-51.163l-8.774,14.624l81.137,48.682v19.203l-92.401-15.4l-2.797,16.824l102.327,17.054
			c0.469,0.077,0.929,0.119,1.398,0.119c2.004,0,3.957-0.708,5.5-2.021c1.919-1.62,3.019-3.999,3.019-6.506v-34.109
			C383.902,466.366,382.333,463.595,379.766,462.051z"/>
	</g>
</g>
<g>
	<g>
		<path d="M275.333,65.45c-2.788-8.348-10.744-13.712-19.425-13.925c-9.047,0.085-16.824,5.978-19.246,14.309l-5.799,17.054
			l16.151,5.492l5.909-17.413c0.418-1.415,1.68-2.379,3.087-2.388c1.433,0,2.695,0.912,3.147,2.251l5.799,17.481l16.185-5.364
			L275.333,65.45z"/>
	</g>
</g>
<g>
</g>
<g>
</g>
<g>
</g>
<g>
</g>
<g>
</g>
<g>
</g>
<g>
</g>
<g>
</g>
<g>
</g>
<g>
</g>
<g>
</g>
<g>
</g>
<g>
</g>
<g>
</g>
<g>
</g>
</svg>
