<?xml version="1.0" encoding="UTF-8" standalone="no"?>
<svg width="80px" height="60px" viewBox="0 0 80 60" version="1.1" xmlns="http://www.w3.org/2000/svg" xmlns:xlink="http://www.w3.org/1999/xlink" xmlns:sketch="http://www.bohemiancoding.com/sketch/ns">
    <!-- Generator: Sketch 3.4.3 (16618) - http://www.bohemiancoding.com/sketch -->
    <title>sass-color</title>
    <desc>Created with Sketch.</desc>
    <defs></defs>
    <g id="Page-1" stroke="none" stroke-width="1" fill="none" fill-rule="evenodd" sketch:type="MSPage">
        <g id="sass-color" sketch:type="MSLayerGroup" fill="#CC6699">
            <g id="P7Bpq9_3_" sketch:type="MSShapeGroup">
                <path d="M37.8415842,34.6930693 C38.9108911,34.8712871 39.3861386,35.4653465 39.1485149,36.5346535 C38.4950495,39.0891089 37.7227723,41.5841584 37.2475248,44.1980198 C37.1287129,44.8514851 37.0693069,45.4455446 37.1881188,46.1584158 C37.5445545,46.0990099 37.6039604,45.8019802 37.7227723,45.5643564 C39.8613861,41.5247525 41.5841584,37.3069307 43.4257426,33.1485149 C44.1386139,31.5445545 44.6732673,30 45.029703,28.3366337 C45.1485149,27.9207921 45.3861386,27.6831683 45.8019802,27.5643564 C46.8712871,27.2673267 48.0594059,27.0891089 49.1881188,27.2673267 C50.1386139,27.4455446 50.4356436,27.8613861 50.0792079,28.8118812 C49.3663366,30.6534653 49.1287129,32.5544554 49.4851485,34.5148515 C49.6039604,35.2871287 49.9009901,36 50.2574257,36.7128713 C50.4356436,37.0693069 50.6138614,37.1287129 50.8514851,36.7722772 C52.5742574,33.6237624 54.6534653,30.6534653 55.5445545,27.0891089 C55.960396,25.1881188 56.0792079,25.1287129 58.2178218,24.950495 C58.7524752,24.950495 59.2277228,24.8910891 59.7623762,24.950495 C60.7722772,25.0693069 61.0693069,25.5445545 60.7128713,26.4950495 C60.0594059,28.3366337 59.7623762,30.1782178 60.1188119,32.1386139 C60.3564356,33.3861386 61.009901,34.4554455 61.5445545,35.5247525 C61.7227723,35.8811881 61.960396,35.8217822 62.2574257,35.7029703 C64.0990099,34.8712871 66,34.3960396 68.019802,34.2772277 C72.4158416,34.0990099 76.2772277,35.1683168 78.8316832,39.0891089 C80.0792079,41.049505 80.4950495,43.1881188 79.3069307,45.3861386 C78.6534653,46.5742574 77.6435644,47.4059406 76.3960396,47.8811881 C76.0990099,48 75.7425743,48.1188119 75.5643564,47.7623762 C75.3861386,47.4059406 75.7425743,47.2871287 75.9207921,47.1089109 C78.950495,44.8514851 78.950495,41.5247525 75.9207921,39.2079208 C74.1980198,37.9009901 72.2970297,37.3069307 70.1584158,37.1287129 C67.8415842,36.8910891 65.5247525,36.950495 63.2673267,37.7821782 C62.7920792,37.960396 62.6732673,38.1386139 62.8514851,38.6138614 C64.1584158,42.2376238 62.5544554,44.3762376 59.7623762,46.2178218 C58.8712871,46.8118812 57.9207921,47.1683168 56.9108911,47.4653465 C54.8316832,48.0594059 53.5841584,46.9306931 54,44.7920792 C54.3564356,42.8316832 55.4257426,41.2277228 56.7326733,39.7425743 C57.0891089,39.3861386 57.4455446,38.970297 57.8019802,38.6732673 C58.0990099,38.4356436 58.4554455,38.2574257 58.5148515,37.960396 C58.5148515,37.7227723 57.4455446,36.8316832 56.3168317,32.0792079 C55.960396,32.7326733 55.6039604,33.3861386 55.1881188,34.0990099 C54.2376238,35.8217822 51.9207921,39.5049505 51.8613861,39.7425743 C51.8019802,39.980198 51.8613861,40.2178218 51.980198,40.4554455 C52.2772277,41.1683168 52.4554455,41.9405941 52.5148515,42.7128713 C52.8118812,45.6237624 51.4455446,47.5841584 48.950495,48.8910891 C47.4059406,49.6633663 45.8019802,50.1980198 44.0792079,50.1386139 C43.3663366,50.1386139 42.7128713,49.960396 42.3564356,49.3069307 C42.0594059,48.6534653 42.2970297,48.0594059 42.7128713,47.5247525 C44.019802,45.9207921 45.3861386,44.3168317 46.6930693,42.6534653 C47.4653465,41.7029703 47.7623762,41.2871287 47.7623762,40.8118812 C47.7623762,40.3960396 46.3960396,38.7326733 45.5049505,34.4554455 C45.029703,35.5841584 44.5544554,36.7128713 44.0792079,37.7821782 C42.4752475,41.4653465 40.6336634,45.029703 38.6732673,48.5346535 C38.2574257,49.3069307 37.7227723,50.019802 37.009901,50.5544554 C35.5841584,51.8019802 34.039604,51.3267327 33.5049505,49.4851485 C33.2079208,48.4158416 33.0891089,47.2871287 33.2673267,46.1584158 C33.2673267,46.1584158 33.3267327,45.6237624 33.2673267,45.5643564 C32.4950495,47.2277228 31.8415842,48.8316832 30.950495,50.3762376 C30.2376238,51.5643564 29.3465347,52.4554455 27.8019802,52.2772277 C27.029703,52.2178218 26.4356436,51.9207921 25.960396,51.3267327 C24.7128713,49.7227723 24.1782178,47.8811881 23.9405941,45.8613861 C23.7029703,43.7821782 24.1188119,41.7029703 24.5940594,39.6831683 C24.6534653,39.4455446 24.7722772,39.2673267 24.7128713,38.9108911 C23.4653465,39.6237624 22.2178218,40.3960396 20.970297,41.1089109 C20.6138614,41.3465347 20.7326733,41.5841584 20.7920792,41.8811881 C22.2178218,46.2772277 21.6831683,50.4356436 19.009901,54.2376238 C17.049505,57.029703 14.3168317,58.7524752 10.9306931,59.4059406 C10.7524752,59.4653465 10.5148515,59.5247525 10.3366337,59.5841584 L7.54455446,59.5841584 C7.48514851,59.5247525 7.42574257,59.5247525 7.30693069,59.4653465 C4.57425743,58.8118812 3.20792079,57.1485149 3.14851485,54.3564356 C3.02970297,51.3267327 4.3960396,49.009901 6.53465347,47.049505 C9.14851485,44.6732673 12.1188119,42.8910891 15.2079208,41.2871287 C16.039604,40.8712871 16.039604,40.8118812 15.2673267,40.2178218 L10.8118812,37.009901 C8.55445545,35.4653465 6.35643564,33.8019802 4.45544554,31.8415842 C2.61386139,30 1.24752475,27.8019802 0.534653465,25.2475248 C-0.712871287,19.4851485 4.15841584,15.3861386 7.42574257,12.4158416 C10.2178218,9.8019802 13.4257426,7.66336634 16.7524752,5.88118812 C21.3861386,3.44554455 26.1386139,1.36633663 31.3663366,0.415841584 C32.1386139,0.297029703 38.4356436,-0.831683168 44.1386139,1.30693069 C46.3366337,2.1980198 48.3564356,3.44554455 49.4851485,5.64356436 C50.7920792,8.07920792 50.7326733,10.6336634 49.960396,13.1881188 C48.4158416,18.1188119 45.2079208,21.6831683 40.8118812,24.1782178 C37.4257426,26.0792079 33.6831683,27.029703 29.8217822,27.3267327 C27.3861386,27.5049505 24.950495,27.4455446 22.6930693,26.4950495 C21.3861386,25.960396 20.2574257,25.1287129 19.4257426,24 C19.1287129,23.6435644 18.950495,23.2277228 18.8316832,22.7524752 C18.7722772,22.4554455 18.7128713,22.1584158 19.009901,21.980198 C19.3069307,21.8019802 19.4851485,22.039604 19.6633663,22.2178218 C21.7425743,24.3564356 24.3564356,24.8316832 27.1485149,24.5940594 C32.019802,24.2376238 36.4752475,22.6336634 40.3366337,19.6039604 C42.4158416,18 44.0792079,16.0990099 45.2673267,13.7227723 C45.7425743,12.7128713 46.039604,11.6435644 46.0990099,10.5148515 C46.2772277,8.4950495 45.2079208,6.83168317 43.1881188,5.94059406 C40.7524752,4.87128713 38.1980198,4.69306931 35.5841584,4.93069307 C26.7326733,5.76237624 19.2475248,9.74257426 12.3564356,15.029703 C10.5742574,16.3960396 9.08910891,18.0594059 7.9009901,20.019802 C6,23.8217822 6.41584158,27.5643564 9.5049505,30.7722772 C11.2871287,32.6732673 13.4257426,34.1584158 15.5049505,35.7623762 C16.6336634,36.6534653 17.8217822,37.6039604 18.8316832,38.6732673 C19.1287129,39.029703 19.4257426,39.029703 19.8415842,38.7920792 C22.0990099,37.5445545 24.4158416,36.2970297 26.6732673,35.049505 C27.029703,34.8712871 27.2079208,34.6336634 27.4455446,34.3366337 C28.7524752,32.7920792 30.1782178,31.4257426 32.019802,30.5940594 C32.4356436,30.4158416 32.8514851,30.2376238 33.2673267,30.1782178 C35.1683168,29.7029703 36.5346535,30.6534653 36.7128713,32.6138614 L36.7128713,33.3267327 C36.7128713,33.3267327 36.7128713,34.6336634 36.5940594,35.3465347 C36.950495,34.5148515 37.8415842,34.6930693 37.8415842,34.6930693 L37.8415842,34.6930693 Z M18.5940594,45.0891089 C18.6534653,44.4950495 18.5346535,43.7227723 18.3564356,42.950495 C18.2970297,42.6534653 18.1782178,42.4752475 17.8217822,42.7128713 C15.0891089,44.3762376 12.3564356,46.039604 10.2178218,48.4752475 C9.02970297,49.8415842 8.25742574,51.3861386 8.43564356,53.2871287 C8.4950495,54.2376238 9.08910891,54.8316832 10.039604,54.950495 C10.4554455,55.009901 10.8118812,54.950495 11.1683168,54.8910891 C15.3267327,53.9405941 18.5940594,49.7227723 18.5940594,45.0891089 L18.5940594,45.0891089 Z M28.1584158,44.019802 C28.1584158,44.6138614 28.1584158,45.1485149 28.2772277,45.7425743 C28.3960396,46.3366337 28.3366337,47.1683168 29.049505,47.2871287 C29.7029703,47.4059406 29.9405941,46.5742574 30.1782178,46.0990099 C31.3069307,43.9009901 32.0792079,41.5841584 32.970297,39.3267327 C33.5643564,37.7821782 34.0990099,36.1782178 34.3960396,34.5148515 C34.4554455,34.1584158 34.5742574,33.7425743 34.2772277,33.5049505 C33.9207921,33.2079208 33.5643564,33.3861386 33.2079208,33.5643564 C32.7326733,33.7425743 32.3762376,34.039604 32.019802,34.3960396 C29.5247525,37.0693069 28.3366337,40.3366337 28.1584158,44.019802 L28.1584158,44.019802 Z M59.8811881,40.7524752 L59.8811881,40.039604 C59.8217822,39.6237624 59.7029703,39.4455446 59.2871287,39.8019802 C57.980198,41.049505 57.2079208,42.5346535 56.7326733,44.2574257 C56.6732673,44.3762376 56.6138614,44.5544554 56.7920792,44.6732673 C56.970297,44.7920792 57.1485149,44.6732673 57.2673267,44.6138614 C58.9306931,43.960396 59.8811881,42.5346535 59.8811881,40.7524752 L59.8811881,40.7524752 Z M45.4455446,47.4059406 C47.049505,47.1683168 49.5445545,44.5544554 49.0693069,43.1881188 C47.9405941,44.6138614 46.8118812,45.980198 45.4455446,47.4059406 L45.4455446,47.4059406 Z" id="Shape"></path>
            </g>
        </g>
    </g>
</svg>