<?xml version="1.0" encoding="iso-8859-1"?>
<!-- Generator: Adobe Illustrator 19.0.0, SVG Export Plug-In . SVG Version: 6.00 Build 0)  -->
<svg xmlns="http://www.w3.org/2000/svg" xmlns:xlink="http://www.w3.org/1999/xlink" version="1.1" id="Capa_1" x="0px" y="0px" viewBox="0 0 512 512" style="enable-background:new 0 0 512 512;" xml:space="preserve" width="512px" height="512px">
<g>
	<g>
		<path d="M469.333,21.333H230.4c-4.71,0-8.533,3.823-8.533,8.533v25.6h-179.2c-4.71,0-8.533,3.823-8.533,8.533v264.533    c0,4.719,3.823,8.533,8.533,8.533h426.667c4.719,0,8.533-3.814,8.533-8.533V29.867C477.867,25.156,474.052,21.333,469.333,21.333z     M460.8,320H51.2V72.533h179.2c4.71,0,8.533-3.823,8.533-8.533V38.4H460.8V320z" fill="#a4a4a4"/>
	</g>
</g>
<g>
	<g>
		<path d="M110.933,21.333h-51.2c-4.71,0-8.533,3.823-8.533,8.533V64c0,4.71,3.823,8.533,8.533,8.533h51.2    c4.71,0,8.533-3.823,8.533-8.533V29.867C119.467,25.156,115.644,21.333,110.933,21.333z M102.4,55.467H68.267V38.4H102.4V55.467z" fill="#a4a4a4"/>
	</g>
</g>
<g>
	<g>
		<path d="M25.6,157.867h17.067V140.8H25.6C11.486,140.8,0,152.286,0,166.4S11.486,192,25.6,192h17.067v-17.067H25.6    c-4.702,0-8.533-3.831-8.533-8.533C17.067,161.698,20.898,157.867,25.6,157.867z" fill="#a4a4a4"/>
	</g>
</g>
<g>
	<g>
		<path d="M486.4,140.8h-17.067v17.067H486.4c4.71,0,8.533,3.831,8.533,8.533c0,4.702-3.823,8.533-8.533,8.533h-17.067V192H486.4    c14.114,0,25.6-11.486,25.6-25.6S500.514,140.8,486.4,140.8z" fill="#a4a4a4"/>
	</g>
</g>
<g>
	<g>
		<path d="M435.2,55.467H384c-4.719,0-8.533,3.823-8.533,8.533v34.133c0,4.71,3.814,8.533,8.533,8.533h51.2    c4.719,0,8.533-3.823,8.533-8.533V64C443.733,59.29,439.919,55.467,435.2,55.467z M426.667,89.6h-34.133V72.533h34.133V89.6z" fill="#a4a4a4"/>
	</g>
</g>
<g>
	<g>
		<path d="M256,98.133c-56.465,0-102.4,45.935-102.4,102.4s45.935,102.4,102.4,102.4s102.4-45.935,102.4-102.4    S312.465,98.133,256,98.133z M256,285.867c-47.053,0-85.333-38.281-85.333-85.333S208.947,115.2,256,115.2    s85.333,38.281,85.333,85.333S303.053,285.867,256,285.867z" fill="#a4a4a4"/>
	</g>
</g>
<g>
	<g>
		<rect x="136.533" y="123.733" width="51.2" height="17.067" fill="#a4a4a4"/>
	</g>
</g>
<g>
	<g>
		<rect x="324.267" y="123.733" width="145.067" height="17.067" fill="#a4a4a4"/>
	</g>
</g>
<g>
	<g>
		<path d="M119.467,106.667c-14.114,0-25.6,11.486-25.6,25.6s11.486,25.6,25.6,25.6s25.6-11.486,25.6-25.6    S133.581,106.667,119.467,106.667z M119.467,140.8c-4.702,0-8.533-3.831-8.533-8.533c0-4.702,3.831-8.533,8.533-8.533    s8.533,3.831,8.533,8.533C128,136.969,124.169,140.8,119.467,140.8z" fill="#a4a4a4"/>
	</g>
</g>
<g>
	<g>
		<rect x="42.667" y="123.733" width="59.733" height="17.067" fill="#a4a4a4"/>
	</g>
</g>
<g>
	<g>
		<path d="M196.267,21.333h-51.2c-4.71,0-8.533,3.823-8.533,8.533V64c0,4.71,3.823,8.533,8.533,8.533h51.2    c4.71,0,8.533-3.823,8.533-8.533V29.867C204.8,25.156,200.977,21.333,196.267,21.333z M187.733,55.467H153.6V38.4h34.133V55.467z" fill="#a4a4a4"/>
	</g>
</g>
<g>
	<g>
		<path d="M159.309,216.627c-4.292,1.519-8.934,1.263-13.039-0.708c-4.113-1.971-7.202-5.427-8.721-9.728    c-1.519-4.301-1.263-8.934,0.708-13.039c1.971-4.113,5.427-7.211,9.719-8.721c3.661-1.28,7.671-1.28,11.332,0l5.658-16.102    c-7.305-2.569-15.351-2.569-22.656,0c-17.758,6.246-27.119,25.771-20.872,43.529c4.932,14.02,18.15,22.81,32.23,22.81    c3.746,0,7.569-0.623,11.307-1.937L159.309,216.627z" fill="#a4a4a4"/>
	</g>
</g>
<g>
	<g>
		<path d="M401.067,183.467c-14.114,0-25.6,11.486-25.6,25.6c0,14.114,11.486,25.6,25.6,25.6c14.114,0,25.6-11.486,25.6-25.6    C426.667,194.953,415.181,183.467,401.067,183.467z M401.067,217.6c-4.71,0-8.533-3.831-8.533-8.533    c0-4.702,3.823-8.533,8.533-8.533s8.533,3.831,8.533,8.533C409.6,213.769,405.777,217.6,401.067,217.6z" fill="#a4a4a4"/>
	</g>
</g>
<g>
	<g>
		<path d="M401.067,157.867c-4.719,0-8.533,3.823-8.533,8.533V192c0,4.71,3.814,8.533,8.533,8.533c4.719,0,8.533-3.823,8.533-8.533    v-25.6C409.6,161.69,405.786,157.867,401.067,157.867z" fill="#a4a4a4"/>
	</g>
</g>
<g>
	<g>
		<path d="M256,132.267c-37.641,0-68.267,30.626-68.267,68.267c0,37.641,30.626,68.267,68.267,68.267    c37.641,0,68.267-30.626,68.267-68.267C324.267,162.893,293.641,132.267,256,132.267z M256,251.733    c-28.237,0-51.2-22.963-51.2-51.2c0-28.237,22.963-51.2,51.2-51.2s51.2,22.963,51.2,51.2    C307.2,228.77,284.237,251.733,256,251.733z" fill="#a4a4a4"/>
	</g>
</g>
<g>
	<g>
		<rect x="42.667" y="268.8" width="162.133" height="17.067" fill="#a4a4a4"/>
	</g>
</g>
<g>
	<g>
		<rect x="307.2" y="268.8" width="162.133" height="17.067" fill="#a4a4a4"/>
	</g>
</g>
<g>
	<g>
		<rect x="162.133" y="89.6" width="25.6" height="17.067" fill="#a4a4a4"/>
	</g>
</g>
<g>
	<g>
		<path d="M494.933,166.4v187.733c0,9.412-7.654,17.067-17.067,17.067h-281.6c-18.825,0-34.133,15.309-34.133,34.133    c0,18.825,15.309,34.133,34.133,34.133h204.8c9.412,0,17.067,7.654,17.067,17.067c0,9.412-7.654,17.067-17.067,17.067H34.133    c-9.412,0-17.067-7.654-17.067-17.067V166.4H0v290.133c0,18.825,15.309,34.133,34.133,34.133h366.933    c18.825,0,34.133-15.309,34.133-34.133c0-18.825-15.309-34.133-34.133-34.133h-204.8c-9.412,0-17.067-7.654-17.067-17.067    c0-9.412,7.654-17.067,17.067-17.067h281.6c18.825,0,34.133-15.309,34.133-34.133V166.4H494.933z" fill="#a4a4a4"/>
	</g>
</g>
<g>
</g>
<g>
</g>
<g>
</g>
<g>
</g>
<g>
</g>
<g>
</g>
<g>
</g>
<g>
</g>
<g>
</g>
<g>
</g>
<g>
</g>
<g>
</g>
<g>
</g>
<g>
</g>
<g>
</g>
</svg>
