<?xml version="1.0" encoding="iso-8859-1"?>
<!-- Generator: Adobe Illustrator 19.0.0, SVG Export Plug-In . SVG Version: 6.00 Build 0)  -->
<svg xmlns="http://www.w3.org/2000/svg" xmlns:xlink="http://www.w3.org/1999/xlink" version="1.1" id="Capa_1" x="0px" y="0px" viewBox="0 0 512.001 512.001" style="enable-background:new 0 0 512.001 512.001;" xml:space="preserve" width="512px" height="512px">
<g>
	<g>
		<path d="M153.327,160.445c-6.127-23.049-22.451-40.943-44.8-49.109c-23.424-8.55-49.877-4.941-70.741,9.668    c-2.645,1.843-4.019,5.018-3.558,8.2c0.452,3.191,2.662,5.845,5.709,6.878l102.4,34.645c0.887,0.307,1.818,0.452,2.731,0.452    c2.133,0,4.224-0.794,5.845-2.313C153.208,166.717,154.138,163.482,153.327,160.445z M64.905,126.516    c12.314-3.789,25.566-3.584,37.751,0.862c11.23,4.105,20.463,11.426,26.795,20.983L64.905,126.516z" fill="#a4a4a4"/>
	</g>
</g>
<g>
	<g>
		<path d="M149.504,155.359c-20.582-12.51-47.625-12.271-70.562,0.631c-22.374,12.578-36.275,34.552-36.275,57.344    c0,3.004,1.579,5.786,4.164,7.33c1.348,0.802,2.859,1.203,4.369,1.203c1.391,0,2.79-0.341,4.062-1.024l93.867-50.688    c2.688-1.451,4.395-4.233,4.471-7.287C153.677,159.813,152.116,156.946,149.504,155.359z M63.019,197.266    c4.369-10.539,12.877-19.977,24.286-26.394c9.224-5.18,18.987-7.782,28.424-7.782c3.063,0,6.084,0.273,9.045,0.828L63.019,197.266    z" fill="#a4a4a4"/>
	</g>
</g>
<g>
	<g>
		<path d="M148.489,170.463l-6.844-15.633c-25.557,11.187-41.745,27.298-48.111,47.889c-10.24,33.118,9.327,64.998,10.163,66.338    c1.57,2.509,4.318,4.011,7.236,4.011c0.341,0,0.674-0.017,1.015-0.06c3.285-0.401,6.042-2.654,7.083-5.794l27.563-83.285    l-14.208-4.702C137.097,176.026,142.464,173.1,148.489,170.463z M110.038,240.078c-2.483-9.378-3.729-21.001-0.162-32.435    c3.149-10.103,9.719-18.918,19.618-26.342L110.038,240.078z" fill="#a4a4a4"/>
	</g>
</g>
<g>
	<g>
		<path d="M194.27,54.239c-2.048-2.44-5.299-3.541-8.38-2.833c-1.408,0.316-34.603,7.987-50.133,37.589    c-10.88,20.727-10.231,46.413,1.92,76.348c1.306,3.209,4.42,5.316,7.885,5.325c0.009,0,0.009,0,0.017,0    c3.456,0,6.579-2.082,7.902-5.282l42.155-102.4C196.839,60.041,196.318,56.671,194.27,54.239z M146.723,136.935    c-3.055-15.437-1.707-28.8,4.07-39.885c5.291-10.146,13.619-17.024,21.214-21.521L146.723,136.935z" fill="#a4a4a4"/>
	</g>
</g>
<g>
	<g>
		<path d="M243.021,111.984c-21.999-11.998-47.693-12.996-68.736-2.662c-19.942,9.805-33.485,28.561-37.129,51.473    c-0.495,3.106,0.76,6.229,3.26,8.132c1.51,1.152,3.328,1.741,5.163,1.741c1.203,0,2.415-0.256,3.55-0.759l93.355-42.667    c2.944-1.348,4.864-4.241,4.983-7.467C247.578,116.549,245.863,113.528,243.021,111.984z M159.54,146.373    c4.89-9.446,12.484-16.922,22.272-21.734c7.287-3.584,15.351-5.359,23.586-5.359c3.686,0,7.407,0.35,11.102,1.058L159.54,146.373z    " fill="#a4a4a4"/>
	</g>
</g>
<g>
	<g>
		<path d="M255.744,194.168c-5.828-22.844-21.769-40.619-43.733-48.768c-23.484-8.721-50.142-5.069-71.313,9.754l9.779,13.986    c16.589-11.614,37.367-14.498,55.595-7.74c11.127,4.122,20.215,11.529,26.342,21.171l-63.437-20.036l-5.146,16.273l81.067,25.6    c0.845,0.265,1.707,0.393,2.569,0.393c2.15,0,4.258-0.811,5.871-2.321C255.591,200.346,256.512,197.172,255.744,194.168z" fill="#a4a4a4"/>
	</g>
</g>
<g>
	<g>
		<path d="M143.642,165.94l-14.208,9.455c0.495,0.742,49.459,76.066,41.259,190.933l17.024,1.22    C196.352,246.554,145.792,169.166,143.642,165.94z" fill="#a4a4a4"/>
	</g>
</g>
<g>
	<g>
		<path d="M168.96,157.014l-13.653,10.24c0.495,0.657,49.493,67.422,49.493,191.147h17.067    C221.867,229.044,171.119,159.898,168.96,157.014z" fill="#a4a4a4"/>
	</g>
</g>
<g>
	<g>
		<path d="M422.264,52.285c-7.817-4.335-16.265-7.211-25.105-8.533c-40.806-6.17-78.805,22.05-84.915,62.763    c-0.469,3.14,0.836,6.281,3.405,8.158c1.493,1.084,3.26,1.638,5.035,1.638c1.289,0,2.577-0.29,3.772-0.87l97.451-48.043    c2.85-1.408,4.693-4.275,4.762-7.45C426.735,56.773,425.046,53.821,422.264,52.285z M334.831,91.29    c9.728-18.91,29.449-31.309,51.217-31.309c2.825,0,5.692,0.205,8.576,0.64c0.606,0.094,1.212,0.188,1.809,0.299L334.831,91.29z" fill="#a4a4a4"/>
	</g>
</g>
<g>
	<g>
		<path d="M426.607,144.052c-2.731-22.758-18.227-42.035-41.472-51.575c-23.979-9.83-50.722-6.536-69.769,8.627    c-2.389,1.911-3.584,4.958-3.115,7.979c0.469,3.029,2.526,5.572,5.385,6.665l97.451,37.291c0.99,0.384,2.022,0.563,3.046,0.563    c1.877,0,3.729-0.614,5.248-1.801C425.737,149.957,426.957,147.022,426.607,144.052z M341.027,106.429    c11.767-3.797,25.131-3.285,37.623,1.835c11.75,4.821,20.847,12.809,26.129,22.562L341.027,106.429z" fill="#a4a4a4"/>
	</g>
</g>
<g>
	<g>
		<path d="M376.483,141.296c-8.823-19.635-26.769-33.655-53.333-41.685l-4.932,16.333c21.564,6.519,35.917,17.365,42.65,32.239    c5.214,11.52,5.18,23.885,3.661,33.775l-29.466-55.808l-15.104,7.97l39.424,74.667c1.485,2.799,4.395,4.548,7.552,4.548    c0.077,0,0.154,0,0.222,0c3.251-0.094,6.17-2.014,7.526-4.958C375.339,206.943,390.699,172.937,376.483,141.296z" fill="#a4a4a4"/>
	</g>
</g>
<g>
	<g>
		<path d="M320.658,33.358C301.543,4.856,267.051,0.248,265.592,0.069c-3.251-0.41-6.332,1.024-8.132,3.695    c-1.801,2.671-1.946,6.118-0.375,8.926l55.125,98.901c1.519,2.722,4.386,4.378,7.45,4.378c0.341,0,0.691-0.017,1.033-0.068    c3.456-0.418,6.298-2.884,7.202-6.238C336.291,78.712,333.859,53.036,320.658,33.358z M315.478,82.407l-33.135-59.443    c8.294,3.874,17.621,10.121,24.235,20.036C313.618,53.573,316.596,66.774,315.478,82.407z" fill="#a4a4a4"/>
	</g>
</g>
<g>
	<g>
		<path d="M327.868,105.072c-6.426-22.315-22.161-39.322-43.162-46.652c-22.076-7.706-47.42-3.661-67.78,10.837    c-2.637,1.869-3.985,5.069-3.49,8.269c0.503,3.191,2.756,5.828,5.837,6.81l97.784,31.232c0.862,0.265,1.732,0.401,2.603,0.401    c2.185,0,4.335-0.845,5.956-2.415C327.877,111.361,328.747,108.101,327.868,105.072z M244.139,74.36    c11.554-3.746,23.672-3.763,34.935,0.171c10.3,3.601,18.748,10.103,24.772,18.901L244.139,74.36z" fill="#a4a4a4"/>
	</g>
</g>
<g>
	<g>
		<path d="M266.036,112.777c14.669-7.586,32.768-6.784,49.63,2.193l8.013-15.07c-21.845-11.639-45.73-12.476-65.468-2.304    c-19.823,10.214-33.041,30.217-36.267,54.895c-0.393,3.012,0.845,6.007,3.251,7.868c1.51,1.169,3.354,1.775,5.205,1.775    c1.092,0,2.185-0.205,3.251-0.623l73.045-29.867l-6.468-15.804l-57.429,23.484C247.459,127.523,255.505,118.205,266.036,112.777z" fill="#a4a4a4"/>
	</g>
</g>
<g>
	<g>
		<path d="M342.725,120.304l-15.582-6.963c-29.559,66.142-42.351,139.298-36.983,211.558l17.015-1.263    C302.021,254.183,314.317,183.877,342.725,120.304z" fill="#a4a4a4"/>
	</g>
</g>
<g>
	<g>
		<path d="M319.514,107.444l-15.07-8.03c-36.915,69.222-53.658,147.174-48.427,225.425l17.041-1.135    C268.032,248.628,284.101,173.85,319.514,107.444z" fill="#a4a4a4"/>
	</g>
</g>
<g>
	<g>
		<rect x="0" y="392.534" width="512" height="17.067" fill="#a4a4a4"/>
	</g>
</g>
<g>
	<g>
		<rect x="187.734" y="426.668" width="238.933" height="17.067" fill="#a4a4a4"/>
	</g>
</g>
<g>
	<g>
		<rect x="76.8" y="426.668" width="93.867" height="17.067" fill="#a4a4a4"/>
	</g>
</g>
<g>
	<g>
		<rect x="281.6" y="349.868" width="17.067" height="17.067" fill="#a4a4a4"/>
	</g>
</g>
<g>
	<g>
		<rect x="324.267" y="358.401" width="17.067" height="17.067" fill="#a4a4a4"/>
	</g>
</g>
<g>
	<g>
		<rect x="238.934" y="358.401" width="17.067" height="17.067" fill="#a4a4a4"/>
	</g>
</g>
<g>
	<g>
		<rect x="247.467" y="460.801" width="136.533" height="17.067" fill="#a4a4a4"/>
	</g>
</g>
<g>
	<g>
		<rect x="119.467" y="460.801" width="110.933" height="17.067" fill="#a4a4a4"/>
	</g>
</g>
<g>
	<g>
		<rect x="204.8" y="494.934" width="93.867" height="17.067" fill="#a4a4a4"/>
	</g>
</g>
<g>
	<g>
		<path d="M256,315.743c-14.652,0.017-29.414,1.084-43.878,3.157l2.432,16.896c13.662-1.971,27.614-2.978,41.446-2.995    c74.368,0,141.935,29.21,168.132,72.678l14.626-8.815C409.131,347.512,337.4,315.743,256,315.743z" fill="#a4a4a4"/>
	</g>
</g>
<g>
	<g>
		<path d="M176.862,326.469c-47.019,13.431-84.779,39.014-103.612,70.195l14.609,8.815c16.623-27.529,50.773-50.347,93.687-62.592    L176.862,326.469z" fill="#a4a4a4"/>
	</g>
</g>
<g>
</g>
<g>
</g>
<g>
</g>
<g>
</g>
<g>
</g>
<g>
</g>
<g>
</g>
<g>
</g>
<g>
</g>
<g>
</g>
<g>
</g>
<g>
</g>
<g>
</g>
<g>
</g>
<g>
</g>
</svg>
