<?xml version="1.0" encoding="iso-8859-1"?>
<!-- Generator: Adobe Illustrator 19.0.0, SVG Export Plug-In . SVG Version: 6.00 Build 0)  -->
<svg xmlns="http://www.w3.org/2000/svg" xmlns:xlink="http://www.w3.org/1999/xlink" version="1.1" id="Capa_1" x="0px" y="0px" viewBox="0 0 512 512" style="enable-background:new 0 0 512 512;" xml:space="preserve" width="512px" height="512px">
<g>
	<g>
		<path d="M286.269,12.601C278.25,4.513,267.551,0.043,256.154,0c-0.06,0-0.111,0-0.162,0c-11.338,0-22.002,4.394-30.047,12.396    c-8.088,8.028-12.558,18.726-12.601,30.116c-0.043,13.539,6.39,26.251,17.063,34.27v426.687c0,4.718,3.822,8.531,8.531,8.531    h34.125c4.718,0,8.531-3.822,8.531-8.531V76.782c10.587-7.96,17.012-20.561,17.063-33.972    C298.699,31.412,294.297,20.688,286.269,12.601z M268.797,64.821c-2.645,1.519-4.266,4.342-4.266,7.388v422.728h-17.063V72.201    c0-3.046-1.63-5.861-4.266-7.388c-7.926-4.564-12.823-13.096-12.797-22.25c0.026-6.834,2.704-13.249,7.559-18.069    c4.829-4.795,11.227-7.431,18.027-7.431c0.034,0,0.068,0,0.094,0c6.842,0.026,13.258,2.704,18.078,7.559    c4.812,4.854,7.456,11.295,7.431,18.129C281.56,51.828,276.663,60.282,268.797,64.821z" fill="#FFFFFF"/>
	</g>
</g>
<g>
	<g>
		<path d="M238.937,102.496H34.185c-2.687,0-5.221,1.263-6.825,3.413L1.766,140.033c-2.278,3.029-2.278,7.209,0,10.238    l25.594,34.125c1.612,2.15,4.138,3.413,6.825,3.413h204.752c4.709,0,8.531-3.822,8.531-8.531v-68.251    C247.469,106.318,243.647,102.496,238.937,102.496z M230.406,170.746H38.451l-19.195-25.594l19.195-25.594h191.955V170.746z" fill="#FFFFFF"/>
	</g>
</g>
<g>
	<g>
		<path d="M510.234,208.284l-25.594-34.125c-1.612-2.15-4.146-3.413-6.825-3.413H273.063c-4.718,0-8.531,3.822-8.531,8.531v68.251    c0,4.718,3.814,8.531,8.531,8.531h204.752c2.679,0,5.213-1.263,6.825-3.413l25.594-34.125    C512.512,215.493,512.512,211.313,510.234,208.284z M473.549,238.997H281.594v-51.188h191.955l19.195,25.594L473.549,238.997z" fill="#FFFFFF"/>
	</g>
</g>
<g>
	<g>
		<path d="M238.937,239.006H68.31c-2.687,0-5.221,1.263-6.825,3.413l-25.594,34.125c-2.278,3.029-2.278,7.2,0,10.229l25.594,34.125    c1.612,2.15,4.138,3.413,6.825,3.413h170.627c4.709,0,8.531-3.822,8.531-8.523v-68.251    C247.469,242.828,243.647,239.006,238.937,239.006z M230.406,307.248H72.576l-19.195-25.594l19.195-25.586h157.83V307.248z" fill="#FFFFFF"/>
	</g>
</g>
<g>
	<g>
		<path d="M476.109,353.317l-25.594-34.125c-1.612-2.15-4.146-3.413-6.825-3.413H273.063c-4.718,0-8.531,3.813-8.531,8.531v68.251    c0,4.718,3.814,8.531,8.531,8.531H443.69c2.679,0,5.213-1.271,6.825-3.421l25.594-34.125    C478.386,360.518,478.386,356.346,476.109,353.317z M439.424,384.03h-157.83v-51.188h157.83l19.196,25.594L439.424,384.03z" fill="#FFFFFF"/>
	</g>
</g>
<g>
</g>
<g>
</g>
<g>
</g>
<g>
</g>
<g>
</g>
<g>
</g>
<g>
</g>
<g>
</g>
<g>
</g>
<g>
</g>
<g>
</g>
<g>
</g>
<g>
</g>
<g>
</g>
<g>
</g>
</svg>
