<?xml version="1.0" encoding="iso-8859-1"?>
<!-- Generator: Adobe Illustrator 19.0.0, SVG Export Plug-In . SVG Version: 6.00 Build 0)  -->
<svg xmlns="http://www.w3.org/2000/svg" xmlns:xlink="http://www.w3.org/1999/xlink" version="1.1" id="Capa_1" x="0px" y="0px" viewBox="0 0 512 512" style="enable-background:new 0 0 512 512;" xml:space="preserve" width="512px" height="512px">
<g>
	<g>
		<path d="M503.467,375.467H8.533C3.823,375.467,0,379.281,0,384v34.133c0,4.719,3.823,8.533,8.533,8.533h494.933    c4.719,0,8.533-3.814,8.533-8.533V384C512,379.281,508.186,375.467,503.467,375.467z M494.933,409.6H17.067v-17.067h477.867V409.6    z" fill="#b2b8bc"/>
	</g>
</g>
<g>
	<g>
		<path d="M42.667,409.6H8.533c-4.71,0-8.533,3.814-8.533,8.533v85.333C0,508.186,3.823,512,8.533,512h34.133    c4.71,0,8.533-3.814,8.533-8.533v-85.333C51.2,413.414,47.377,409.6,42.667,409.6z M34.133,494.933H17.067v-68.267h17.067V494.933    z" fill="#b2b8bc"/>
	</g>
</g>
<g>
	<g>
		<path d="M503.467,409.6h-34.133c-4.719,0-8.533,3.814-8.533,8.533v85.333c0,4.719,3.814,8.533,8.533,8.533h34.133    c4.719,0,8.533-3.814,8.533-8.533v-85.333C512,413.414,508.186,409.6,503.467,409.6z M494.933,494.933h-17.067v-68.267h17.067    V494.933z" fill="#b2b8bc"/>
	</g>
</g>
<g>
	<g>
		<path d="M475.366,275.558l-25.6-25.6c-3.268-3.251-8.516-3.345-11.87-0.188l-136.533,128c-2.56,2.398-3.388,6.11-2.099,9.37    c1.289,3.251,4.437,5.393,7.936,5.393h51.2c2.142,0,4.207-0.811,5.794-2.27l110.933-102.4c1.698-1.579,2.688-3.78,2.739-6.101    C477.909,279.441,477.005,277.197,475.366,275.558z M355.063,375.467h-26.291l114.765-107.588l13.474,13.474L355.063,375.467z" fill="#b2b8bc"/>
	</g>
</g>
<g>
	<g>
		
			<rect x="452.254" y="303.595" transform="matrix(0.9138 -0.4061 0.4061 0.9138 -100.6499 216.9147)" width="17.066" height="84.043" fill="#b2b8bc"/>
	</g>
</g>
<g>
	<g>
		<path d="M145.067,0C65.075,0,0,65.075,0,145.067v17.067c0,3.447,2.082,6.562,5.274,7.885c3.174,1.323,6.852,0.597,9.293-1.843    c15.497-15.471,40.713-15.471,56.209,0c3.328,3.328,8.73,3.328,12.058,0c15.497-15.471,40.713-15.471,56.209,0    c3.328,3.328,8.73,3.328,12.058,0c15.497-15.471,40.713-15.471,56.209,0c3.328,3.328,8.73,3.328,12.058,0    c15.488-15.471,40.721-15.479,56.201,0c1.63,1.621,3.814,2.492,6.033,2.492c1.101,0,2.21-0.213,3.268-0.649    c3.191-1.323,5.265-4.437,5.265-7.885v-17.067C290.133,65.075,225.058,0,145.067,0z M273.067,145.562    c-19.012-9.566-42.308-7.799-59.733,5.299c-10.069-7.569-22.101-11.358-34.133-11.358s-24.064,3.789-34.133,11.358    c-20.13-15.13-48.137-15.13-68.267,0c-17.425-13.099-40.721-14.874-59.733-5.299v-0.495c0-70.579,57.421-128,128-128    s128,57.421,128,128V145.562z" fill="#b2b8bc"/>
	</g>
</g>
<g>
	<g>
		<path d="M418.133,42.667c-28.237,0-51.2,22.963-51.2,51.2c0,28.237,22.963,51.2,51.2,51.2c28.237,0,51.2-22.963,51.2-51.2    C469.333,65.63,446.37,42.667,418.133,42.667z M418.133,128C399.309,128,384,112.691,384,93.867    c0-18.825,15.309-34.133,34.133-34.133s34.133,15.309,34.133,34.133C452.267,112.691,436.958,128,418.133,128z" fill="#b2b8bc"/>
	</g>
</g>
<g>
	<g>
		<rect x="409.6" width="17.067" height="25.6" fill="#b2b8bc"/>
	</g>
</g>
<g>
	<g>
		<rect x="486.4" y="85.333" width="25.6" height="17.067" fill="#b2b8bc"/>
	</g>
</g>
<g>
	<g>
		<rect x="324.267" y="85.333" width="25.6" height="17.067" fill="#b2b8bc"/>
	</g>
</g>
<g>
	<g>
		
			<rect x="462.68" y="28.002" transform="matrix(0.7071 -0.7071 0.7071 0.7071 113.4285 346.9106)" width="25.583" height="17.066" fill="#b2b8bc"/>
	</g>
</g>
<g>
	<g>
		
			<rect x="347.998" y="142.708" transform="matrix(0.7071 -0.7071 0.7071 0.7071 -1.271 299.4148)" width="25.583" height="17.066" fill="#b2b8bc"/>
	</g>
</g>
<g>
	<g>
		<rect x="466.932" y="138.41" transform="matrix(0.707 -0.7072 0.7072 0.707 32.378 380.5534)" width="17.067" height="25.583" fill="#b2b8bc"/>
	</g>
</g>
<g>
	<g>
		<rect x="352.246" y="23.693" transform="matrix(0.707 -0.7072 0.7072 0.707 79.903 265.8344)" width="17.067" height="25.583" fill="#b2b8bc"/>
	</g>
</g>
<g>
	<g>
		<rect x="409.6" y="162.133" width="17.067" height="25.6" fill="#b2b8bc"/>
	</g>
</g>
<g>
	<g>
		<rect x="136.533" y="162.133" width="17.067" height="221.867" fill="#b2b8bc"/>
	</g>
</g>
<g>
	<g>
		<rect x="136.533" y="418.133" width="17.067" height="93.867" fill="#b2b8bc"/>
	</g>
</g>
<g>
</g>
<g>
</g>
<g>
</g>
<g>
</g>
<g>
</g>
<g>
</g>
<g>
</g>
<g>
</g>
<g>
</g>
<g>
</g>
<g>
</g>
<g>
</g>
<g>
</g>
<g>
</g>
<g>
</g>
</svg>
