<?xml version="1.0" encoding="iso-8859-1"?>
<!-- Generator: Adobe Illustrator 19.0.0, SVG Export Plug-In . SVG Version: 6.00 Build 0)  -->
<svg xmlns="http://www.w3.org/2000/svg" xmlns:xlink="http://www.w3.org/1999/xlink" version="1.1" id="Capa_1" x="0px" y="0px" viewBox="0 0 512 512" style="enable-background:new 0 0 512 512;" xml:space="preserve" width="512px" height="512px">
<g>
	<g>
		<rect x="247.47" y="162.155" width="17.069" height="324.31" fill="#a4a4a4"/>
	</g>
</g>
<g>
	<g>
		<path d="M443.379,487.438c-13.169,10.002-31.552,10.002-44.738-0.017c-19.211-14.517-46.043-14.534-65.263,0.017    c-13.169,10.002-31.552,10.002-44.738-0.017c-19.22-14.517-46.052-14.526-65.28,0.017c-13.169,10.011-31.56,9.994-44.738-0.017    c-19.211-14.517-46.044-14.534-65.272,0.017c-13.16,10.011-31.56,9.994-44.738-0.017c-19.211-14.517-46.044-14.509-65.255,0    l10.293,13.621c13.152-9.943,31.526-9.943,44.652-0.017c19.245,14.628,46.129,14.628,65.357,0.017    c13.143-9.951,31.509-9.943,44.652-0.017C177.939,508.339,189.47,512,201.008,512c11.522,0,23.052-3.661,32.661-10.958    c13.152-9.951,31.518-9.943,44.661-0.017c19.22,14.628,46.103,14.62,65.357,0.017c13.152-9.951,31.509-9.934,44.644-0.017    c19.228,14.628,46.112,14.62,65.357,0.017c13.16-9.96,31.526-9.943,44.652,0l10.301-13.621    C489.431,472.895,462.59,472.895,443.379,487.438z" fill="#a4a4a4"/>
	</g>
</g>
<g>
	<g>
		<path d="M409.625,68.276H102.384c-4.711,0-8.534,3.823-8.534,8.534v136.552h17.069V85.345H401.09v128.017h17.069V76.81    C418.159,72.099,414.344,68.276,409.625,68.276z" fill="#a4a4a4"/>
	</g>
</g>
<g>
	<g>
		<path d="M291.03,7.596C290.552,3.269,286.899,0,282.546,0h-53.084c-4.344,0-7.997,3.269-8.483,7.596l-7.596,68.276l16.967,1.878    l6.751-60.68h37.808l6.742,60.68l16.975-1.878L291.03,7.596z" fill="#a4a4a4"/>
	</g>
</g>
<g>
	<g>
		<rect x="196.263" width="119.483" height="17.069" fill="#a4a4a4"/>
	</g>
</g>
<g>
	<g>
		<path d="M480.956,231.003L295.86,159.834c-12.699-4.916-26.039-7.408-39.651-7.408c-0.077,0-0.145,0-0.222,0l0.034,17.069    c0.06,0,0.128,0,0.188,0c11.496,0,22.77,2.108,33.515,6.264l179.198,68.899c-6.444,79.9-34.411,156.445-81.095,221.751    l-10.762,15.106l13.903,9.9l10.745-15.089c49.739-69.573,79.029-151.461,84.696-236.789    C486.648,235.807,484.438,232.351,480.956,231.003z" fill="#a4a4a4"/>
	</g>
</g>
<g>
	<g>
		<path d="M255.808,152.417c-13.612,0-26.96,2.492-39.643,7.399L31.053,230.994c-3.499,1.348-5.701,4.796-5.454,8.534    c5.675,85.328,34.957,167.216,84.688,236.78l10.753,15.106l13.894-9.9L124.172,466.4C77.506,401.103,49.53,324.557,43.086,244.658    l179.224-68.916c10.728-4.148,21.993-6.256,33.498-6.256c0.06,0,0.128,0,0.188,0l0.034-17.069    C255.953,152.417,255.885,152.417,255.808,152.417z" fill="#a4a4a4"/>
	</g>
</g>
<g>
	<g>
		<rect x="102.384" y="443.793" width="307.241" height="17.069" fill="#a4a4a4"/>
	</g>
</g>
<g>
	<g>
		<path d="M278.219,204.512c-14.329-5.735-30.101-5.744-44.413,0l-194.33,77.741l6.341,15.849l194.338-77.749    c10.224-4.096,21.49-4.088,31.723,0l194.33,77.749l6.333-15.849L278.219,204.512z" fill="#a4a4a4"/>
	</g>
</g>
<g>
	<g>
		<rect x="247.47" y="102.414" width="17.069" height="17.069" fill="#a4a4a4"/>
	</g>
</g>
<g>
	<g>
		<rect x="213.332" y="102.414" width="17.069" height="17.069" fill="#a4a4a4"/>
	</g>
</g>
<g>
	<g>
		<rect x="179.194" y="102.414" width="17.069" height="17.069" fill="#a4a4a4"/>
	</g>
</g>
<g>
	<g>
		<rect x="145.056" y="102.414" width="17.069" height="17.069" fill="#a4a4a4"/>
	</g>
</g>
<g>
	<g>
		<rect x="281.608" y="102.414" width="17.069" height="17.069" fill="#a4a4a4"/>
	</g>
</g>
<g>
	<g>
		<rect x="315.746" y="102.414" width="17.069" height="17.069" fill="#a4a4a4"/>
	</g>
</g>
<g>
	<g>
		<rect x="349.883" y="102.414" width="17.069" height="17.069" fill="#a4a4a4"/>
	</g>
</g>
<g>
	<g>
		<rect x="110.918" y="102.414" width="17.069" height="17.069" fill="#a4a4a4"/>
	</g>
</g>
<g>
	<g>
		<rect x="384.021" y="102.414" width="17.069" height="17.069" fill="#a4a4a4"/>
	</g>
</g>
<g>
	<g>
		<rect x="247.47" y="136.552" width="17.069" height="17.069" fill="#a4a4a4"/>
	</g>
</g>
<g>
	<g>
		<rect x="213.332" y="136.552" width="17.069" height="17.069" fill="#a4a4a4"/>
	</g>
</g>
<g>
	<g>
		<rect x="179.194" y="136.552" width="17.069" height="17.069" fill="#a4a4a4"/>
	</g>
</g>
<g>
	<g>
		<rect x="145.056" y="136.552" width="17.069" height="17.069" fill="#a4a4a4"/>
	</g>
</g>
<g>
	<g>
		<rect x="281.608" y="136.552" width="17.069" height="17.069" fill="#a4a4a4"/>
	</g>
</g>
<g>
	<g>
		<rect x="315.746" y="136.552" width="17.069" height="17.069" fill="#a4a4a4"/>
	</g>
</g>
<g>
	<g>
		<rect x="349.883" y="136.552" width="17.069" height="17.069" fill="#a4a4a4"/>
	</g>
</g>
<g>
	<g>
		<rect x="110.918" y="136.552" width="17.069" height="17.069" fill="#a4a4a4"/>
	</g>
</g>
<g>
	<g>
		<rect x="384.021" y="136.552" width="17.069" height="17.069" fill="#a4a4a4"/>
	</g>
</g>
<g>
	<g>
		<rect x="145.056" y="170.689" width="17.069" height="17.069" fill="#a4a4a4"/>
	</g>
</g>
<g>
	<g>
		<rect x="349.883" y="170.689" width="17.069" height="17.069" fill="#a4a4a4"/>
	</g>
</g>
<g>
	<g>
		<rect x="110.918" y="170.689" width="17.069" height="17.069" fill="#a4a4a4"/>
	</g>
</g>
<g>
	<g>
		<rect x="384.021" y="170.689" width="17.069" height="17.069" fill="#a4a4a4"/>
	</g>
</g>
<g>
	<g>
		<rect x="196.263" y="34.138" width="34.138" height="17.069" fill="#a4a4a4"/>
	</g>
</g>
<g>
	<g>
		<rect x="281.608" y="34.138" width="34.138" height="17.069" fill="#a4a4a4"/>
	</g>
</g>
<g>
	<g>
		<rect x="162.125" y="17.069" width="17.069" height="59.741" fill="#a4a4a4"/>
	</g>
</g>
<g>
	<g>
		<rect x="332.814" y="17.069" width="17.069" height="59.741" fill="#a4a4a4"/>
	</g>
</g>
<g>
	<g>
		<rect x="127.987" y="17.069" width="17.069" height="59.741" fill="#a4a4a4"/>
	</g>
</g>
<g>
	<g>
		<rect x="366.952" y="17.069" width="17.069" height="59.741" fill="#a4a4a4"/>
	</g>
</g>
<g>
</g>
<g>
</g>
<g>
</g>
<g>
</g>
<g>
</g>
<g>
</g>
<g>
</g>
<g>
</g>
<g>
</g>
<g>
</g>
<g>
</g>
<g>
</g>
<g>
</g>
<g>
</g>
<g>
</g>
</svg>
